<?xml version="1.0" encoding="utf-8" standalone="no"?>
<!DOCTYPE svg PUBLIC "-//W3C//DTD SVG 1.1//EN"
  "http://www.w3.org/Graphics/SVG/1.1/DTD/svg11.dtd">
<!-- Created with matplotlib (https://matplotlib.org/) -->
<svg height="245.742365pt" version="1.1" viewBox="0 0 252.437108 245.742365" width="252.437108pt" xmlns="http://www.w3.org/2000/svg" xmlns:xlink="http://www.w3.org/1999/xlink">
 <metadata>
  <rdf:RDF xmlns:cc="http://creativecommons.org/ns#" xmlns:dc="http://purl.org/dc/elements/1.1/" xmlns:rdf="http://www.w3.org/1999/02/22-rdf-syntax-ns#">
   <cc:Work>
    <dc:type rdf:resource="http://purl.org/dc/dcmitype/StillImage"/>
    <dc:date>2020-12-09T14:50:27.088375</dc:date>
    <dc:format>image/svg+xml</dc:format>
    <dc:creator>
     <cc:Agent>
      <dc:title>Matplotlib v3.3.2, https://matplotlib.org/</dc:title>
     </cc:Agent>
    </dc:creator>
   </cc:Work>
  </rdf:RDF>
 </metadata>
 <defs>
  <style type="text/css">*{stroke-linecap:butt;stroke-linejoin:round;}</style>
 </defs>
 <g id="figure_1">
  <g id="patch_1">
   <path d="M 0 245.742365 
L 252.437108 245.742365 
L 252.437108 0 
L 0 0 
z
" style="fill:none;"/>
  </g>
  <g id="axes_1">
   <g id="patch_2">
    <path d="M 31.3325 119.782769 
L 123.985053 119.782769 
L 123.985053 29.52125 
L 31.3325 29.52125 
z
" style="fill:#ffffff;"/>
   </g>
   <g id="PolyCollection_1">
    <defs>
     <path d="M 33.33796 -125.959595 
L 31.3325 -125.959595 
L 31.3325 -129.850178 
L 31.3325 -133.740761 
L 31.3325 -137.631343 
L 31.3325 -141.521926 
L 31.3325 -145.412509 
L 31.3325 -149.303092 
L 31.3325 -153.193674 
L 31.3325 -157.084257 
L 31.3325 -160.97484 
L 31.3325 -164.865423 
L 31.3325 -168.756005 
L 31.3325 -172.646588 
L 31.3325 -176.537171 
L 31.3325 -180.427753 
L 31.3325 -184.318336 
L 31.3325 -188.208919 
L 31.3325 -192.099502 
L 31.3325 -195.990084 
L 31.3325 -199.880667 
L 31.3325 -203.77125 
L 31.3325 -207.661833 
L 31.3325 -211.552415 
L 31.3325 -215.442998 
L 31.3325 -219.333581 
L 31.3325 -223.224163 
L 31.3325 -227.114746 
L 31.3325 -231.005329 
L 31.3325 -234.895912 
L 31.3325 -238.786494 
L 135.170454 -238.786494 
L 135.170454 -238.786494 
L 131.658988 -234.895912 
L 128.147523 -231.005329 
L 124.636058 -227.114746 
L 121.124593 -223.224163 
L 117.613127 -219.333581 
L 114.101662 -215.442998 
L 110.590197 -211.552415 
L 107.078731 -207.661833 
L 103.567266 -203.77125 
L 100.055801 -199.880667 
L 96.544335 -195.990084 
L 93.03287 -192.099502 
L 89.521405 -188.208919 
L 86.009939 -184.318336 
L 82.498474 -180.427753 
L 78.987009 -176.537171 
L 75.475543 -172.646588 
L 71.964078 -168.756005 
L 68.452613 -164.865423 
L 64.941148 -160.97484 
L 61.429682 -157.084257 
L 57.918217 -153.193674 
L 54.406752 -149.303092 
L 50.895286 -145.412509 
L 47.383821 -141.521926 
L 43.872356 -137.631343 
L 40.36089 -133.740761 
L 36.849425 -129.850178 
L 33.33796 -125.959595 
z
" id="mdc4442adb3" style="stroke:#f09000;"/>
    </defs>
    <g clip-path="url(#p7341cdf9cb)">
     <use style="fill:#f09000;stroke:#f09000;" x="0" xlink:href="#mdc4442adb3" y="245.742365"/>
    </g>
   </g>
   <g id="PolyCollection_2">
    <defs>
     <path d="M 33.33796 -125.959595 
L 33.33796 -125.959595 
L 36.849425 -129.850178 
L 40.36089 -133.740761 
L 43.872356 -137.631343 
L 47.383821 -141.521926 
L 50.895286 -145.412509 
L 54.406752 -149.303092 
L 57.918217 -153.193674 
L 61.429682 -157.084257 
L 64.941148 -160.97484 
L 68.452613 -164.865423 
L 71.964078 -168.756005 
L 75.475543 -172.646588 
L 78.987009 -176.537171 
L 82.498474 -180.427753 
L 86.009939 -184.318336 
L 89.521405 -188.208919 
L 93.03287 -192.099502 
L 96.544335 -195.990084 
L 100.055801 -199.880667 
L 103.567266 -203.77125 
L 107.078731 -207.661833 
L 110.590197 -211.552415 
L 114.101662 -215.442998 
L 117.613127 -219.333581 
L 121.124593 -223.224163 
L 124.636058 -227.114746 
L 128.147523 -231.005329 
L 131.658988 -234.895912 
L 135.170454 -238.786494 
L 135.170454 -125.959595 
L 135.170454 -125.959595 
L 131.658988 -125.959595 
L 128.147523 -125.959595 
L 124.636058 -125.959595 
L 121.124593 -125.959595 
L 117.613127 -125.959595 
L 114.101662 -125.959595 
L 110.590197 -125.959595 
L 107.078731 -125.959595 
L 103.567266 -125.959595 
L 100.055801 -125.959595 
L 96.544335 -125.959595 
L 93.03287 -125.959595 
L 89.521405 -125.959595 
L 86.009939 -125.959595 
L 82.498474 -125.959595 
L 78.987009 -125.959595 
L 75.475543 -125.959595 
L 71.964078 -125.959595 
L 68.452613 -125.959595 
L 64.941148 -125.959595 
L 61.429682 -125.959595 
L 57.918217 -125.959595 
L 54.406752 -125.959595 
L 50.895286 -125.959595 
L 47.383821 -125.959595 
L 43.872356 -125.959595 
L 40.36089 -125.959595 
L 36.849425 -125.959595 
L 33.33796 -125.959595 
z
" id="mb1c279a796" style="stroke:#cd4158;"/>
    </defs>
    <g clip-path="url(#p7341cdf9cb)">
     <use style="fill:#cd4158;stroke:#cd4158;" x="0" xlink:href="#mb1c279a796" y="245.742365"/>
    </g>
   </g>
   <g id="matplotlib.axis_1">
    <g id="xtick_1">
     <g id="line2d_1">
      <defs>
       <path d="M 0 0 
L 0 3.5 
" id="mc3430fbc4e" style="stroke:#000000;stroke-width:0.8;"/>
      </defs>
      <g>
       <use style="stroke:#000000;stroke-width:0.8;" x="31.3325" xlink:href="#mc3430fbc4e" y="29.52125"/>
      </g>
     </g>
     <g id="text_1">
      <!-- 0 -->
      <g transform="translate(28.7875 24.3575)scale(0.08 -0.08)">
       <defs>
        <path d="M 31.78125 66.40625 
Q 24.171875 66.40625 20.328125 58.90625 
Q 16.5 51.421875 16.5 36.375 
Q 16.5 21.390625 20.328125 13.890625 
Q 24.171875 6.390625 31.78125 6.390625 
Q 39.453125 6.390625 43.28125 13.890625 
Q 47.125 21.390625 47.125 36.375 
Q 47.125 51.421875 43.28125 58.90625 
Q 39.453125 66.40625 31.78125 66.40625 
z
M 31.78125 74.21875 
Q 44.046875 74.21875 50.515625 64.515625 
Q 56.984375 54.828125 56.984375 36.375 
Q 56.984375 17.96875 50.515625 8.265625 
Q 44.046875 -1.421875 31.78125 -1.421875 
Q 19.53125 -1.421875 13.0625 8.265625 
Q 6.59375 17.96875 6.59375 36.375 
Q 6.59375 54.828125 13.0625 64.515625 
Q 19.53125 74.21875 31.78125 74.21875 
z
" id="DejaVuSans-48"/>
       </defs>
       <use xlink:href="#DejaVuSans-48"/>
      </g>
     </g>
    </g>
    <g id="xtick_2">
     <g id="line2d_2">
      <g>
       <use style="stroke:#000000;stroke-width:0.8;" x="54.495638" xlink:href="#mc3430fbc4e" y="29.52125"/>
      </g>
     </g>
     <g id="text_2">
      <!-- 1 -->
      <g transform="translate(51.950638 24.3575)scale(0.08 -0.08)">
       <defs>
        <path d="M 12.40625 8.296875 
L 28.515625 8.296875 
L 28.515625 63.921875 
L 10.984375 60.40625 
L 10.984375 69.390625 
L 28.421875 72.90625 
L 38.28125 72.90625 
L 38.28125 8.296875 
L 54.390625 8.296875 
L 54.390625 0 
L 12.40625 0 
z
" id="DejaVuSans-49"/>
       </defs>
       <use xlink:href="#DejaVuSans-49"/>
      </g>
     </g>
    </g>
    <g id="xtick_3">
     <g id="line2d_3">
      <g>
       <use style="stroke:#000000;stroke-width:0.8;" x="77.658776" xlink:href="#mc3430fbc4e" y="29.52125"/>
      </g>
     </g>
     <g id="text_3">
      <!-- 2 -->
      <g transform="translate(75.113776 24.3575)scale(0.08 -0.08)">
       <defs>
        <path d="M 19.1875 8.296875 
L 53.609375 8.296875 
L 53.609375 0 
L 7.328125 0 
L 7.328125 8.296875 
Q 12.9375 14.109375 22.625 23.890625 
Q 32.328125 33.6875 34.8125 36.53125 
Q 39.546875 41.84375 41.421875 45.53125 
Q 43.3125 49.21875 43.3125 52.78125 
Q 43.3125 58.59375 39.234375 62.25 
Q 35.15625 65.921875 28.609375 65.921875 
Q 23.96875 65.921875 18.8125 64.3125 
Q 13.671875 62.703125 7.8125 59.421875 
L 7.8125 69.390625 
Q 13.765625 71.78125 18.9375 73 
Q 24.125 74.21875 28.421875 74.21875 
Q 39.75 74.21875 46.484375 68.546875 
Q 53.21875 62.890625 53.21875 53.421875 
Q 53.21875 48.921875 51.53125 44.890625 
Q 49.859375 40.875 45.40625 35.40625 
Q 44.1875 33.984375 37.640625 27.21875 
Q 31.109375 20.453125 19.1875 8.296875 
z
" id="DejaVuSans-50"/>
       </defs>
       <use xlink:href="#DejaVuSans-50"/>
      </g>
     </g>
    </g>
    <g id="xtick_4">
     <g id="line2d_4">
      <g>
       <use style="stroke:#000000;stroke-width:0.8;" x="100.821915" xlink:href="#mc3430fbc4e" y="29.52125"/>
      </g>
     </g>
     <g id="text_4">
      <!-- 3 -->
      <g transform="translate(98.276915 24.3575)scale(0.08 -0.08)">
       <defs>
        <path d="M 40.578125 39.3125 
Q 47.65625 37.796875 51.625 33 
Q 55.609375 28.21875 55.609375 21.1875 
Q 55.609375 10.40625 48.1875 4.484375 
Q 40.765625 -1.421875 27.09375 -1.421875 
Q 22.515625 -1.421875 17.65625 -0.515625 
Q 12.796875 0.390625 7.625 2.203125 
L 7.625 11.71875 
Q 11.71875 9.328125 16.59375 8.109375 
Q 21.484375 6.890625 26.8125 6.890625 
Q 36.078125 6.890625 40.9375 10.546875 
Q 45.796875 14.203125 45.796875 21.1875 
Q 45.796875 27.640625 41.28125 31.265625 
Q 36.765625 34.90625 28.71875 34.90625 
L 20.21875 34.90625 
L 20.21875 43.015625 
L 29.109375 43.015625 
Q 36.375 43.015625 40.234375 45.921875 
Q 44.09375 48.828125 44.09375 54.296875 
Q 44.09375 59.90625 40.109375 62.90625 
Q 36.140625 65.921875 28.71875 65.921875 
Q 24.65625 65.921875 20.015625 65.03125 
Q 15.375 64.15625 9.8125 62.3125 
L 9.8125 71.09375 
Q 15.4375 72.65625 20.34375 73.4375 
Q 25.25 74.21875 29.59375 74.21875 
Q 40.828125 74.21875 47.359375 69.109375 
Q 53.90625 64.015625 53.90625 55.328125 
Q 53.90625 49.265625 50.4375 45.09375 
Q 46.96875 40.921875 40.578125 39.3125 
z
" id="DejaVuSans-51"/>
       </defs>
       <use xlink:href="#DejaVuSans-51"/>
      </g>
     </g>
    </g>
    <g id="text_5">
     <!-- T -->
     <g transform="translate(75.215651 13.27875)scale(0.08 -0.08)">
      <defs>
       <path d="M -0.296875 72.90625 
L 61.375 72.90625 
L 61.375 64.59375 
L 35.5 64.59375 
L 35.5 0 
L 25.59375 0 
L 25.59375 64.59375 
L -0.296875 64.59375 
z
" id="DejaVuSans-84"/>
      </defs>
      <use xlink:href="#DejaVuSans-84"/>
     </g>
    </g>
   </g>
   <g id="matplotlib.axis_2">
    <g id="ytick_1">
     <g id="line2d_5">
      <defs>
       <path d="M 0 0 
L 3.5 0 
" id="m8b0eb3aa04" style="stroke:#000000;stroke-width:0.8;"/>
      </defs>
      <g>
       <use style="stroke:#000000;stroke-width:0.8;" x="31.3325" xlink:href="#m8b0eb3aa04" y="119.782769"/>
      </g>
     </g>
     <g id="line2d_6">
      <defs>
       <path d="M 0 0 
L -3.5 0 
" id="me35a47e195" style="stroke:#000000;stroke-width:0.8;"/>
      </defs>
      <g>
       <use style="stroke:#000000;stroke-width:0.8;" x="123.985053" xlink:href="#me35a47e195" y="119.782769"/>
      </g>
     </g>
     <g id="text_6">
      <!-- 0 -->
      <g transform="translate(22.7425 122.822144)scale(0.08 -0.08)">
       <use xlink:href="#DejaVuSans-48"/>
      </g>
     </g>
    </g>
    <g id="ytick_2">
     <g id="line2d_7">
      <g>
       <use style="stroke:#000000;stroke-width:0.8;" x="31.3325" xlink:href="#m8b0eb3aa04" y="97.217389"/>
      </g>
     </g>
     <g id="line2d_8">
      <g>
       <use style="stroke:#000000;stroke-width:0.8;" x="123.985053" xlink:href="#me35a47e195" y="97.217389"/>
      </g>
     </g>
     <g id="text_7">
      <!-- 2 -->
      <g transform="translate(22.7425 100.256764)scale(0.08 -0.08)">
       <use xlink:href="#DejaVuSans-50"/>
      </g>
     </g>
    </g>
    <g id="ytick_3">
     <g id="line2d_9">
      <g>
       <use style="stroke:#000000;stroke-width:0.8;" x="31.3325" xlink:href="#m8b0eb3aa04" y="74.65201"/>
      </g>
     </g>
     <g id="line2d_10">
      <g>
       <use style="stroke:#000000;stroke-width:0.8;" x="123.985053" xlink:href="#me35a47e195" y="74.65201"/>
      </g>
     </g>
     <g id="text_8">
      <!-- 4 -->
      <g transform="translate(22.7425 77.691385)scale(0.08 -0.08)">
       <defs>
        <path d="M 37.796875 64.3125 
L 12.890625 25.390625 
L 37.796875 25.390625 
z
M 35.203125 72.90625 
L 47.609375 72.90625 
L 47.609375 25.390625 
L 58.015625 25.390625 
L 58.015625 17.1875 
L 47.609375 17.1875 
L 47.609375 0 
L 37.796875 0 
L 37.796875 17.1875 
L 4.890625 17.1875 
L 4.890625 26.703125 
z
" id="DejaVuSans-52"/>
       </defs>
       <use xlink:href="#DejaVuSans-52"/>
      </g>
     </g>
    </g>
    <g id="ytick_4">
     <g id="line2d_11">
      <g>
       <use style="stroke:#000000;stroke-width:0.8;" x="31.3325" xlink:href="#m8b0eb3aa04" y="52.08663"/>
      </g>
     </g>
     <g id="line2d_12">
      <g>
       <use style="stroke:#000000;stroke-width:0.8;" x="123.985053" xlink:href="#me35a47e195" y="52.08663"/>
      </g>
     </g>
     <g id="text_9">
      <!-- 6 -->
      <g transform="translate(22.7425 55.126005)scale(0.08 -0.08)">
       <defs>
        <path d="M 33.015625 40.375 
Q 26.375 40.375 22.484375 35.828125 
Q 18.609375 31.296875 18.609375 23.390625 
Q 18.609375 15.53125 22.484375 10.953125 
Q 26.375 6.390625 33.015625 6.390625 
Q 39.65625 6.390625 43.53125 10.953125 
Q 47.40625 15.53125 47.40625 23.390625 
Q 47.40625 31.296875 43.53125 35.828125 
Q 39.65625 40.375 33.015625 40.375 
z
M 52.59375 71.296875 
L 52.59375 62.3125 
Q 48.875 64.0625 45.09375 64.984375 
Q 41.3125 65.921875 37.59375 65.921875 
Q 27.828125 65.921875 22.671875 59.328125 
Q 17.53125 52.734375 16.796875 39.40625 
Q 19.671875 43.65625 24.015625 45.921875 
Q 28.375 48.1875 33.59375 48.1875 
Q 44.578125 48.1875 50.953125 41.515625 
Q 57.328125 34.859375 57.328125 23.390625 
Q 57.328125 12.15625 50.6875 5.359375 
Q 44.046875 -1.421875 33.015625 -1.421875 
Q 20.359375 -1.421875 13.671875 8.265625 
Q 6.984375 17.96875 6.984375 36.375 
Q 6.984375 53.65625 15.1875 63.9375 
Q 23.390625 74.21875 37.203125 74.21875 
Q 40.921875 74.21875 44.703125 73.484375 
Q 48.484375 72.75 52.59375 71.296875 
z
" id="DejaVuSans-54"/>
       </defs>
       <use xlink:href="#DejaVuSans-54"/>
      </g>
     </g>
    </g>
    <g id="ytick_5">
     <g id="line2d_13">
      <g>
       <use style="stroke:#000000;stroke-width:0.8;" x="31.3325" xlink:href="#m8b0eb3aa04" y="29.52125"/>
      </g>
     </g>
     <g id="line2d_14">
      <g>
       <use style="stroke:#000000;stroke-width:0.8;" x="123.985053" xlink:href="#me35a47e195" y="29.52125"/>
      </g>
     </g>
     <g id="text_10">
      <!-- 8 -->
      <g transform="translate(22.7425 32.560625)scale(0.08 -0.08)">
       <defs>
        <path d="M 31.78125 34.625 
Q 24.75 34.625 20.71875 30.859375 
Q 16.703125 27.09375 16.703125 20.515625 
Q 16.703125 13.921875 20.71875 10.15625 
Q 24.75 6.390625 31.78125 6.390625 
Q 38.8125 6.390625 42.859375 10.171875 
Q 46.921875 13.96875 46.921875 20.515625 
Q 46.921875 27.09375 42.890625 30.859375 
Q 38.875 34.625 31.78125 34.625 
z
M 21.921875 38.8125 
Q 15.578125 40.375 12.03125 44.71875 
Q 8.5 49.078125 8.5 55.328125 
Q 8.5 64.0625 14.71875 69.140625 
Q 20.953125 74.21875 31.78125 74.21875 
Q 42.671875 74.21875 48.875 69.140625 
Q 55.078125 64.0625 55.078125 55.328125 
Q 55.078125 49.078125 51.53125 44.71875 
Q 48 40.375 41.703125 38.8125 
Q 48.828125 37.15625 52.796875 32.3125 
Q 56.78125 27.484375 56.78125 20.515625 
Q 56.78125 9.90625 50.3125 4.234375 
Q 43.84375 -1.421875 31.78125 -1.421875 
Q 19.734375 -1.421875 13.25 4.234375 
Q 6.78125 9.90625 6.78125 20.515625 
Q 6.78125 27.484375 10.78125 32.3125 
Q 14.796875 37.15625 21.921875 38.8125 
z
M 18.3125 54.390625 
Q 18.3125 48.734375 21.84375 45.5625 
Q 25.390625 42.390625 31.78125 42.390625 
Q 38.140625 42.390625 41.71875 45.5625 
Q 45.3125 48.734375 45.3125 54.390625 
Q 45.3125 60.0625 41.71875 63.234375 
Q 38.140625 66.40625 31.78125 66.40625 
Q 25.390625 66.40625 21.84375 63.234375 
Q 18.3125 60.0625 18.3125 54.390625 
z
" id="DejaVuSans-56"/>
       </defs>
       <use xlink:href="#DejaVuSans-56"/>
      </g>
     </g>
    </g>
    <g id="text_11">
     <!-- J -->
     <g transform="translate(16.5625 72.98826)scale(0.08 -0.08)">
      <defs>
       <path d="M 9.8125 72.90625 
L 19.671875 72.90625 
L 19.671875 5.078125 
Q 19.671875 -8.109375 14.671875 -14.0625 
Q 9.671875 -20.015625 -1.421875 -20.015625 
L -5.171875 -20.015625 
L -5.171875 -11.71875 
L -2.09375 -11.71875 
Q 4.4375 -11.71875 7.125 -8.046875 
Q 9.8125 -4.390625 9.8125 5.078125 
z
" id="DejaVuSans-74"/>
      </defs>
      <use xlink:href="#DejaVuSans-74"/>
     </g>
    </g>
   </g>
   <g id="LineCollection_1">
    <path clip-path="url(#p7341cdf9cb)" d="M 0 0 
" style="fill:none;stroke:#000000;stroke-width:0.5;"/>
    <path clip-path="url(#p7341cdf9cb)" d="M 44.827702 107.246447 
L 45.849126 107.246447 
" style="fill:none;stroke:#000000;stroke-width:0.5;"/>
    <path clip-path="url(#p7341cdf9cb)" d="M 55.87606 94.710125 
L 56.532758 94.710125 
" style="fill:none;stroke:#000000;stroke-width:0.5;"/>
    <path clip-path="url(#p7341cdf9cb)" d="M 66.800259 82.173803 
L 67.56089 82.173803 
" style="fill:none;stroke:#000000;stroke-width:0.5;"/>
    <path clip-path="url(#p7341cdf9cb)" d="M 77.838994 69.637481 
L 78.511801 69.637481 
" style="fill:none;stroke:#000000;stroke-width:0.5;"/>
    <path clip-path="url(#p7341cdf9cb)" d="M 88.905458 57.101159 
L 89.791291 57.101159 
" style="fill:none;stroke:#000000;stroke-width:0.5;"/>
    <path clip-path="url(#p7341cdf9cb)" d="M 100.542024 44.564837 
L 101.403996 44.564837 
" style="fill:none;stroke:#000000;stroke-width:0.5;"/>
    <path clip-path="url(#p7341cdf9cb)" d="M 112.219669 32.028514 
L 113.119144 32.028514 
" style="fill:none;stroke:#000000;stroke-width:0.5;"/>
    <path clip-path="url(#p7341cdf9cb)" d="M 123.525532 19.492192 
L 124.598975 19.492192 
" style="fill:none;stroke:#000000;stroke-width:0.5;"/>
    <path clip-path="url(#p7341cdf9cb)" d="M 135.445019 6.95587 
L 136.625789 6.95587 
" style="fill:none;stroke:#000000;stroke-width:0.5;"/>
   </g>
   <g id="LineCollection_2">
    <path clip-path="url(#p7341cdf9cb)" d="M 31.3325 63.36932 
L 147.148191 63.36932 
" style="fill:none;stroke:#000000;stroke-dasharray:2.59,1.12;stroke-dashoffset:0;stroke-width:0.7;"/>
   </g>
   <g id="line2d_15">
    <path clip-path="url(#p7341cdf9cb)" d="M 33.33796 119.782769 
L 36.849425 115.892187 
L 40.36089 112.001604 
L 43.872356 108.111021 
L 47.383821 104.220438 
L 50.895286 100.329856 
L 54.406752 96.439273 
L 57.918217 92.54869 
L 61.429682 88.658107 
L 64.941148 84.767525 
L 68.452613 80.876942 
L 71.964078 76.986359 
L 75.475543 73.095777 
L 78.987009 69.205194 
L 82.498474 65.314611 
L 86.009939 61.424028 
L 89.521405 57.533446 
L 93.03287 53.642863 
L 96.544335 49.75228 
L 100.055801 45.861697 
L 103.567266 41.971115 
L 107.078731 38.080532 
L 110.590197 34.189949 
L 114.101662 30.299367 
L 117.613127 26.408784 
L 121.124593 22.518201 
L 124.636058 18.627618 
L 128.147523 14.737036 
L 131.658988 10.846453 
L 135.170454 6.95587 
" style="fill:none;stroke:#000000;stroke-linecap:square;"/>
   </g>
   <g id="line2d_16">
    <path clip-path="url(#p7341cdf9cb)" d="M 45.338414 107.246447 
L 56.204409 94.710125 
L 67.180575 82.173803 
L 78.175398 69.637481 
L 89.348374 57.101159 
L 100.97301 44.564837 
L 112.669407 32.028514 
L 124.062253 19.492192 
L 136.035404 6.95587 
" style="fill:none;"/>
    <defs>
     <path d="M 0 0.5 
C 0.132602 0.5 0.25979 0.447317 0.353553 0.353553 
C 0.447317 0.25979 0.5 0.132602 0.5 0 
C 0.5 -0.132602 0.447317 -0.25979 0.353553 -0.353553 
C 0.25979 -0.447317 0.132602 -0.5 0 -0.5 
C -0.132602 -0.5 -0.25979 -0.447317 -0.353553 -0.353553 
C -0.447317 -0.25979 -0.5 -0.132602 -0.5 0 
C -0.5 0.132602 -0.447317 0.25979 -0.353553 0.353553 
C -0.25979 0.447317 -0.132602 0.5 0 0.5 
z
" id="m3ed5c39dca" style="stroke:#000000;"/>
    </defs>
    <g clip-path="url(#p7341cdf9cb)">
     <use style="stroke:#000000;" x="45.338414" xlink:href="#m3ed5c39dca" y="107.246447"/>
     <use style="stroke:#000000;" x="56.204409" xlink:href="#m3ed5c39dca" y="94.710125"/>
     <use style="stroke:#000000;" x="67.180575" xlink:href="#m3ed5c39dca" y="82.173803"/>
     <use style="stroke:#000000;" x="78.175398" xlink:href="#m3ed5c39dca" y="69.637481"/>
     <use style="stroke:#000000;" x="89.348374" xlink:href="#m3ed5c39dca" y="57.101159"/>
     <use style="stroke:#000000;" x="100.97301" xlink:href="#m3ed5c39dca" y="44.564837"/>
     <use style="stroke:#000000;" x="112.669407" xlink:href="#m3ed5c39dca" y="32.028514"/>
     <use style="stroke:#000000;" x="124.062253" xlink:href="#m3ed5c39dca" y="19.492192"/>
     <use style="stroke:#000000;" x="136.035404" xlink:href="#m3ed5c39dca" y="6.95587"/>
    </g>
   </g>
   <g id="line2d_17">
    <defs>
     <path d="M 0 1 
L 0 -1 
" id="m7723003ea0" style="stroke:#000000;"/>
    </defs>
    <g clip-path="url(#p7341cdf9cb)">
     <use style="stroke:#000000;" x="44.827702" xlink:href="#m7723003ea0" y="107.246447"/>
     <use style="stroke:#000000;" x="55.87606" xlink:href="#m7723003ea0" y="94.710125"/>
     <use style="stroke:#000000;" x="66.800259" xlink:href="#m7723003ea0" y="82.173803"/>
     <use style="stroke:#000000;" x="77.838994" xlink:href="#m7723003ea0" y="69.637481"/>
     <use style="stroke:#000000;" x="88.905458" xlink:href="#m7723003ea0" y="57.101159"/>
     <use style="stroke:#000000;" x="100.542024" xlink:href="#m7723003ea0" y="44.564837"/>
     <use style="stroke:#000000;" x="112.219669" xlink:href="#m7723003ea0" y="32.028514"/>
     <use style="stroke:#000000;" x="123.525532" xlink:href="#m7723003ea0" y="19.492192"/>
     <use style="stroke:#000000;" x="135.445019" xlink:href="#m7723003ea0" y="6.95587"/>
    </g>
   </g>
   <g id="line2d_18">
    <g clip-path="url(#p7341cdf9cb)">
     <use style="stroke:#000000;" x="45.849126" xlink:href="#m7723003ea0" y="107.246447"/>
     <use style="stroke:#000000;" x="56.532758" xlink:href="#m7723003ea0" y="94.710125"/>
     <use style="stroke:#000000;" x="67.56089" xlink:href="#m7723003ea0" y="82.173803"/>
     <use style="stroke:#000000;" x="78.511801" xlink:href="#m7723003ea0" y="69.637481"/>
     <use style="stroke:#000000;" x="89.791291" xlink:href="#m7723003ea0" y="57.101159"/>
     <use style="stroke:#000000;" x="101.403996" xlink:href="#m7723003ea0" y="44.564837"/>
     <use style="stroke:#000000;" x="113.119144" xlink:href="#m7723003ea0" y="32.028514"/>
     <use style="stroke:#000000;" x="124.598975" xlink:href="#m7723003ea0" y="19.492192"/>
     <use style="stroke:#000000;" x="136.625789" xlink:href="#m7723003ea0" y="6.95587"/>
    </g>
   </g>
   <g id="line2d_19">
    <path clip-path="url(#p7341cdf9cb)" d="M 84.254207 63.36932 
" style="fill:none;stroke:#000000;stroke-linecap:square;stroke-width:1.5;"/>
    <defs>
     <path d="M 0 -1 
L -1 1 
L 1 1 
z
" id="m0d4dfadf6b" style="stroke:#000000;stroke-linejoin:miter;"/>
    </defs>
    <g clip-path="url(#p7341cdf9cb)">
     <use style="stroke:#000000;stroke-linejoin:miter;" x="84.254207" xlink:href="#m0d4dfadf6b" y="63.36932"/>
    </g>
   </g>
   <g id="line2d_20"/>
   <g id="patch_3">
    <path d="M 31.3325 119.782769 
L 31.3325 29.52125 
" style="fill:none;stroke:#000000;stroke-linecap:square;stroke-linejoin:miter;stroke-width:0.8;"/>
   </g>
   <g id="patch_4">
    <path d="M 123.985053 119.782769 
L 123.985053 29.52125 
" style="fill:none;stroke:#000000;stroke-linecap:square;stroke-linejoin:miter;stroke-width:0.8;"/>
   </g>
   <g id="patch_5">
    <path d="M 31.3325 119.782769 
L 123.985053 119.782769 
" style="fill:none;stroke:#000000;stroke-linecap:square;stroke-linejoin:miter;stroke-width:0.8;"/>
   </g>
   <g id="patch_6">
    <path d="M 31.3325 29.52125 
L 123.985053 29.52125 
" style="fill:none;stroke:#000000;stroke-linecap:square;stroke-linejoin:miter;stroke-width:0.8;"/>
   </g>
   <g id="text_12">
    <!-- CDW -->
    <g transform="translate(45.230383 52.89246)scale(0.07 -0.07)">
     <defs>
      <path d="M 64.40625 67.28125 
L 64.40625 56.890625 
Q 59.421875 61.53125 53.78125 63.8125 
Q 48.140625 66.109375 41.796875 66.109375 
Q 29.296875 66.109375 22.65625 58.46875 
Q 16.015625 50.828125 16.015625 36.375 
Q 16.015625 21.96875 22.65625 14.328125 
Q 29.296875 6.6875 41.796875 6.6875 
Q 48.140625 6.6875 53.78125 8.984375 
Q 59.421875 11.28125 64.40625 15.921875 
L 64.40625 5.609375 
Q 59.234375 2.09375 53.4375 0.328125 
Q 47.65625 -1.421875 41.21875 -1.421875 
Q 24.65625 -1.421875 15.125 8.703125 
Q 5.609375 18.84375 5.609375 36.375 
Q 5.609375 53.953125 15.125 64.078125 
Q 24.65625 74.21875 41.21875 74.21875 
Q 47.75 74.21875 53.53125 72.484375 
Q 59.328125 70.75 64.40625 67.28125 
z
" id="DejaVuSans-67"/>
      <path d="M 19.671875 64.796875 
L 19.671875 8.109375 
L 31.59375 8.109375 
Q 46.6875 8.109375 53.6875 14.9375 
Q 60.6875 21.78125 60.6875 36.53125 
Q 60.6875 51.171875 53.6875 57.984375 
Q 46.6875 64.796875 31.59375 64.796875 
z
M 9.8125 72.90625 
L 30.078125 72.90625 
Q 51.265625 72.90625 61.171875 64.09375 
Q 71.09375 55.28125 71.09375 36.53125 
Q 71.09375 17.671875 61.125 8.828125 
Q 51.171875 0 30.078125 0 
L 9.8125 0 
z
" id="DejaVuSans-68"/>
      <path d="M 3.328125 72.90625 
L 13.28125 72.90625 
L 28.609375 11.28125 
L 43.890625 72.90625 
L 54.984375 72.90625 
L 70.3125 11.28125 
L 85.59375 72.90625 
L 95.609375 72.90625 
L 77.296875 0 
L 64.890625 0 
L 49.515625 63.28125 
L 33.984375 0 
L 21.578125 0 
z
" id="DejaVuSans-87"/>
     </defs>
     <use xlink:href="#DejaVuSans-67"/>
     <use x="69.824219" xlink:href="#DejaVuSans-68"/>
     <use x="146.826172" xlink:href="#DejaVuSans-87"/>
    </g>
   </g>
   <g id="text_13">
    <!-- Mott -->
    <g transform="translate(86.924032 93.510144)scale(0.07 -0.07)">
     <defs>
      <path d="M 9.8125 72.90625 
L 24.515625 72.90625 
L 43.109375 23.296875 
L 61.8125 72.90625 
L 76.515625 72.90625 
L 76.515625 0 
L 66.890625 0 
L 66.890625 64.015625 
L 48.09375 14.015625 
L 38.1875 14.015625 
L 19.390625 64.015625 
L 19.390625 0 
L 9.8125 0 
z
" id="DejaVuSans-77"/>
      <path d="M 30.609375 48.390625 
Q 23.390625 48.390625 19.1875 42.75 
Q 14.984375 37.109375 14.984375 27.296875 
Q 14.984375 17.484375 19.15625 11.84375 
Q 23.34375 6.203125 30.609375 6.203125 
Q 37.796875 6.203125 41.984375 11.859375 
Q 46.1875 17.53125 46.1875 27.296875 
Q 46.1875 37.015625 41.984375 42.703125 
Q 37.796875 48.390625 30.609375 48.390625 
z
M 30.609375 56 
Q 42.328125 56 49.015625 48.375 
Q 55.71875 40.765625 55.71875 27.296875 
Q 55.71875 13.875 49.015625 6.21875 
Q 42.328125 -1.421875 30.609375 -1.421875 
Q 18.84375 -1.421875 12.171875 6.21875 
Q 5.515625 13.875 5.515625 27.296875 
Q 5.515625 40.765625 12.171875 48.375 
Q 18.84375 56 30.609375 56 
z
" id="DejaVuSans-111"/>
      <path d="M 18.3125 70.21875 
L 18.3125 54.6875 
L 36.8125 54.6875 
L 36.8125 47.703125 
L 18.3125 47.703125 
L 18.3125 18.015625 
Q 18.3125 11.328125 20.140625 9.421875 
Q 21.96875 7.515625 27.59375 7.515625 
L 36.8125 7.515625 
L 36.8125 0 
L 27.59375 0 
Q 17.1875 0 13.234375 3.875 
Q 9.28125 7.765625 9.28125 18.015625 
L 9.28125 47.703125 
L 2.6875 47.703125 
L 2.6875 54.6875 
L 9.28125 54.6875 
L 9.28125 70.21875 
z
" id="DejaVuSans-116"/>
     </defs>
     <use xlink:href="#DejaVuSans-77"/>
     <use x="86.279297" xlink:href="#DejaVuSans-111"/>
     <use x="147.460938" xlink:href="#DejaVuSans-116"/>
     <use x="186.669922" xlink:href="#DejaVuSans-116"/>
    </g>
   </g>
   <g id="text_14">
    <!-- (a) -->
    <g transform="translate(34.112077 42.061078)scale(0.07 -0.07)">
     <defs>
      <path d="M 31 75.875 
Q 24.46875 64.65625 21.28125 53.65625 
Q 18.109375 42.671875 18.109375 31.390625 
Q 18.109375 20.125 21.3125 9.0625 
Q 24.515625 -2 31 -13.1875 
L 23.1875 -13.1875 
Q 15.875 -1.703125 12.234375 9.375 
Q 8.59375 20.453125 8.59375 31.390625 
Q 8.59375 42.28125 12.203125 53.3125 
Q 15.828125 64.359375 23.1875 75.875 
z
" id="DejaVuSans-40"/>
      <path d="M 34.28125 27.484375 
Q 23.390625 27.484375 19.1875 25 
Q 14.984375 22.515625 14.984375 16.5 
Q 14.984375 11.71875 18.140625 8.90625 
Q 21.296875 6.109375 26.703125 6.109375 
Q 34.1875 6.109375 38.703125 11.40625 
Q 43.21875 16.703125 43.21875 25.484375 
L 43.21875 27.484375 
z
M 52.203125 31.203125 
L 52.203125 0 
L 43.21875 0 
L 43.21875 8.296875 
Q 40.140625 3.328125 35.546875 0.953125 
Q 30.953125 -1.421875 24.3125 -1.421875 
Q 15.921875 -1.421875 10.953125 3.296875 
Q 6 8.015625 6 15.921875 
Q 6 25.140625 12.171875 29.828125 
Q 18.359375 34.515625 30.609375 34.515625 
L 43.21875 34.515625 
L 43.21875 35.40625 
Q 43.21875 41.609375 39.140625 45 
Q 35.0625 48.390625 27.6875 48.390625 
Q 23 48.390625 18.546875 47.265625 
Q 14.109375 46.140625 10.015625 43.890625 
L 10.015625 52.203125 
Q 14.9375 54.109375 19.578125 55.046875 
Q 24.21875 56 28.609375 56 
Q 40.484375 56 46.34375 49.84375 
Q 52.203125 43.703125 52.203125 31.203125 
z
" id="DejaVuSans-97"/>
      <path d="M 8.015625 75.875 
L 15.828125 75.875 
Q 23.140625 64.359375 26.78125 53.3125 
Q 30.421875 42.28125 30.421875 31.390625 
Q 30.421875 20.453125 26.78125 9.375 
Q 23.140625 -1.703125 15.828125 -13.1875 
L 8.015625 -13.1875 
Q 14.5 -2 17.703125 9.0625 
Q 20.90625 20.125 20.90625 31.390625 
Q 20.90625 42.671875 17.703125 53.65625 
Q 14.5 64.65625 8.015625 75.875 
z
" id="DejaVuSans-41"/>
     </defs>
     <use xlink:href="#DejaVuSans-40"/>
     <use x="39.013672" xlink:href="#DejaVuSans-97"/>
     <use x="100.292969" xlink:href="#DejaVuSans-41"/>
    </g>
   </g>
  </g>
  <g id="axes_2">
   <g id="patch_7">
    <path d="M 128.617681 119.782769 
L 221.270233 119.782769 
L 221.270233 29.52125 
L 128.617681 29.52125 
z
" style="fill:#ffffff;"/>
   </g>
   <g id="patch_8">
    <path clip-path="url(#p51e3ed9487)" d="M 221.270233 29.52125 
L 171.663622 29.52125 
L 171.619414 40.80394 
L 171.481661 52.08663 
L 170.982285 63.36932 
L 171.133312 74.65201 
L 170.955046 75.368215 
L 174.584502 75.316896 
L 181.277797 75.20822 
L 187.971092 75.171994 
L 194.664387 75.168976 
L 201.357681 75.087469 
L 208.050976 75.039168 
L 214.744271 74.972755 
L 221.270233 75.165957 
L 221.270233 74.65201 
z
" style="fill:#cd4158;"/>
   </g>
   <g id="patch_9">
    <path clip-path="url(#p51e3ed9487)" d="M 170.5986 85.9347 
L 170.493119 97.217389 
L 170.888616 108.500079 
L 170.595224 119.782769 
L 221.270233 119.782769 
L 221.270233 74.65201 
L 221.270233 75.165957 
L 214.744271 74.972755 
L 208.050976 75.039168 
L 201.357681 75.087469 
L 194.664387 75.168976 
L 187.971092 75.171994 
L 181.277797 75.20822 
L 174.584502 75.316896 
L 170.955046 75.368215 
z
" style="fill:#ffd547;"/>
   </g>
   <g id="patch_10">
    <path clip-path="url(#p51e3ed9487)" d="M 128.617681 29.52125 
L 128.617681 119.782769 
L 170.595224 119.782769 
L 170.888616 108.500079 
L 170.493119 97.217389 
L 170.5986 85.9347 
L 171.133312 74.65201 
L 170.982285 63.36932 
L 171.481661 52.08663 
L 171.619414 40.80394 
L 171.663622 29.52125 
z
" style="fill:#f09000;"/>
   </g>
   <g id="matplotlib.axis_3">
    <g id="xtick_5">
     <g id="line2d_21">
      <g>
       <use style="stroke:#000000;stroke-width:0.8;" x="128.617681" xlink:href="#mc3430fbc4e" y="29.52125"/>
      </g>
     </g>
     <g id="text_15">
      <!-- 0 -->
      <g transform="translate(126.072681 24.3575)scale(0.08 -0.08)">
       <use xlink:href="#DejaVuSans-48"/>
      </g>
     </g>
    </g>
    <g id="xtick_6">
     <g id="line2d_22">
      <g>
       <use style="stroke:#000000;stroke-width:0.8;" x="147.148191" xlink:href="#mc3430fbc4e" y="29.52125"/>
      </g>
     </g>
     <g id="text_16">
      <!-- 1 -->
      <g transform="translate(144.603191 24.3575)scale(0.08 -0.08)">
       <use xlink:href="#DejaVuSans-49"/>
      </g>
     </g>
    </g>
    <g id="xtick_7">
     <g id="line2d_23">
      <g>
       <use style="stroke:#000000;stroke-width:0.8;" x="165.678702" xlink:href="#mc3430fbc4e" y="29.52125"/>
      </g>
     </g>
     <g id="text_17">
      <!-- 2 -->
      <g transform="translate(163.133702 24.3575)scale(0.08 -0.08)">
       <use xlink:href="#DejaVuSans-50"/>
      </g>
     </g>
    </g>
    <g id="xtick_8">
     <g id="line2d_24">
      <g>
       <use style="stroke:#000000;stroke-width:0.8;" x="184.209212" xlink:href="#mc3430fbc4e" y="29.52125"/>
      </g>
     </g>
     <g id="text_18">
      <!-- 3 -->
      <g transform="translate(181.664212 24.3575)scale(0.08 -0.08)">
       <use xlink:href="#DejaVuSans-51"/>
      </g>
     </g>
    </g>
    <g id="xtick_9">
     <g id="line2d_25">
      <g>
       <use style="stroke:#000000;stroke-width:0.8;" x="202.739723" xlink:href="#mc3430fbc4e" y="29.52125"/>
      </g>
     </g>
     <g id="text_19">
      <!-- 4 -->
      <g transform="translate(200.194723 24.3575)scale(0.08 -0.08)">
       <use xlink:href="#DejaVuSans-52"/>
      </g>
     </g>
    </g>
    <g id="text_20">
     <!-- T -->
     <g transform="translate(172.500832 13.27875)scale(0.08 -0.08)">
      <use xlink:href="#DejaVuSans-84"/>
     </g>
    </g>
   </g>
   <g id="matplotlib.axis_4">
    <g id="ytick_6">
     <g id="line2d_26">
      <g>
       <use style="stroke:#000000;stroke-width:0.8;" x="221.270233" xlink:href="#me35a47e195" y="119.782769"/>
      </g>
     </g>
     <g id="text_21">
      <!-- 0 -->
      <g transform="translate(224.770233 122.822144)scale(0.08 -0.08)">
       <use xlink:href="#DejaVuSans-48"/>
      </g>
     </g>
    </g>
    <g id="ytick_7">
     <g id="line2d_27">
      <g>
       <use style="stroke:#000000;stroke-width:0.8;" x="221.270233" xlink:href="#me35a47e195" y="97.217389"/>
      </g>
     </g>
     <g id="text_22">
      <!-- 2 -->
      <g transform="translate(224.770233 100.256764)scale(0.08 -0.08)">
       <use xlink:href="#DejaVuSans-50"/>
      </g>
     </g>
    </g>
    <g id="ytick_8">
     <g id="line2d_28">
      <g>
       <use style="stroke:#000000;stroke-width:0.8;" x="221.270233" xlink:href="#me35a47e195" y="74.65201"/>
      </g>
     </g>
     <g id="text_23">
      <!-- 4 -->
      <g transform="translate(224.770233 77.691385)scale(0.08 -0.08)">
       <use xlink:href="#DejaVuSans-52"/>
      </g>
     </g>
    </g>
    <g id="ytick_9">
     <g id="line2d_29">
      <g>
       <use style="stroke:#000000;stroke-width:0.8;" x="221.270233" xlink:href="#me35a47e195" y="52.08663"/>
      </g>
     </g>
     <g id="text_24">
      <!-- 6 -->
      <g transform="translate(224.770233 55.126005)scale(0.08 -0.08)">
       <use xlink:href="#DejaVuSans-54"/>
      </g>
     </g>
    </g>
    <g id="ytick_10">
     <g id="line2d_30">
      <g>
       <use style="stroke:#000000;stroke-width:0.8;" x="221.270233" xlink:href="#me35a47e195" y="29.52125"/>
      </g>
     </g>
     <g id="text_25">
      <!-- 8 -->
      <g transform="translate(224.770233 32.560625)scale(0.08 -0.08)">
       <use xlink:href="#DejaVuSans-56"/>
      </g>
     </g>
    </g>
    <g id="text_26">
     <!-- U -->
     <g transform="translate(231.932733 80.73076)scale(0.08 -0.08)">
      <defs>
       <path d="M 8.6875 72.90625 
L 18.609375 72.90625 
L 18.609375 28.609375 
Q 18.609375 16.890625 22.84375 11.734375 
Q 27.09375 6.59375 36.625 6.59375 
Q 46.09375 6.59375 50.34375 11.734375 
Q 54.59375 16.890625 54.59375 28.609375 
L 54.59375 72.90625 
L 64.5 72.90625 
L 64.5 27.390625 
Q 64.5 13.140625 57.4375 5.859375 
Q 50.390625 -1.421875 36.625 -1.421875 
Q 22.796875 -1.421875 15.734375 5.859375 
Q 8.6875 13.140625 8.6875 27.390625 
z
" id="DejaVuSans-85"/>
      </defs>
      <use xlink:href="#DejaVuSans-85"/>
     </g>
    </g>
   </g>
   <g id="LineCollection_3">
    <path clip-path="url(#p51e3ed9487)" d="M 170.955046 75.42355 
L 170.955046 75.31288 
" style="fill:none;stroke:#000000;stroke-width:1.5;"/>
    <path clip-path="url(#p51e3ed9487)" d="M 174.584502 75.352742 
L 174.584502 75.28105 
" style="fill:none;stroke:#000000;stroke-width:1.5;"/>
    <path clip-path="url(#p51e3ed9487)" d="M 181.277797 75.243092 
L 181.277797 75.173347 
" style="fill:none;stroke:#000000;stroke-width:1.5;"/>
    <path clip-path="url(#p51e3ed9487)" d="M 187.971092 75.247892 
L 187.971092 75.096097 
" style="fill:none;stroke:#000000;stroke-width:1.5;"/>
    <path clip-path="url(#p51e3ed9487)" d="M 194.664387 75.20872 
L 194.664387 75.129232 
" style="fill:none;stroke:#000000;stroke-width:1.5;"/>
    <path clip-path="url(#p51e3ed9487)" d="M 201.357681 75.134891 
L 201.357681 75.040046 
" style="fill:none;stroke:#000000;stroke-width:1.5;"/>
    <path clip-path="url(#p51e3ed9487)" d="M 208.050976 75.093924 
L 208.050976 74.984412 
" style="fill:none;stroke:#000000;stroke-width:1.5;"/>
    <path clip-path="url(#p51e3ed9487)" d="M 214.744271 75.021275 
L 214.744271 74.924235 
" style="fill:none;stroke:#000000;stroke-width:1.5;"/>
    <path clip-path="url(#p51e3ed9487)" d="M 221.270233 75.215957 
L 221.270233 75.115957 
" style="fill:none;stroke:#000000;stroke-width:1.5;"/>
   </g>
   <g id="LineCollection_4">
    <path clip-path="url(#p51e3ed9487)" d="M 170.473797 119.782769 
L 170.71665 119.782769 
" style="fill:none;stroke:#000000;"/>
    <path clip-path="url(#p51e3ed9487)" d="M 170.755803 108.500079 
L 171.021429 108.500079 
" style="fill:none;stroke:#000000;"/>
    <path clip-path="url(#p51e3ed9487)" d="M 170.313439 97.217389 
L 170.6728 97.217389 
" style="fill:none;stroke:#000000;"/>
    <path clip-path="url(#p51e3ed9487)" d="M 170.448983 85.9347 
L 170.748216 85.9347 
" style="fill:none;stroke:#000000;"/>
    <path clip-path="url(#p51e3ed9487)" d="M 171.027199 74.65201 
L 171.239426 74.65201 
" style="fill:none;stroke:#000000;"/>
    <path clip-path="url(#p51e3ed9487)" d="M 170.849347 63.36932 
L 171.115223 63.36932 
" style="fill:none;stroke:#000000;"/>
    <path clip-path="url(#p51e3ed9487)" d="M 171.359951 52.08663 
L 171.603371 52.08663 
" style="fill:none;stroke:#000000;"/>
    <path clip-path="url(#p51e3ed9487)" d="M 171.469587 40.80394 
L 171.769241 40.80394 
" style="fill:none;stroke:#000000;"/>
    <path clip-path="url(#p51e3ed9487)" d="M 171.531569 29.52125 
L 171.795674 29.52125 
" style="fill:none;stroke:#000000;"/>
   </g>
   <g id="LineCollection_5">
    <path clip-path="url(#p51e3ed9487)" d="M 128.617681 63.36932 
L 221.270233 63.36932 
" style="fill:none;stroke:#000000;stroke-dasharray:2.59,1.12;stroke-dashoffset:0;stroke-width:0.7;"/>
   </g>
   <g id="line2d_31">
    <path clip-path="url(#p51e3ed9487)" d="M 170.955046 75.368215 
L 174.584502 75.316896 
L 181.277797 75.20822 
L 187.971092 75.171994 
L 194.664387 75.168976 
L 201.357681 75.087469 
L 208.050976 75.039168 
L 214.744271 74.972755 
L 221.270233 75.165957 
" style="fill:none;stroke:#000000;stroke-linecap:square;"/>
    <g clip-path="url(#p51e3ed9487)">
     <use style="stroke:#000000;" x="170.955046" xlink:href="#m3ed5c39dca" y="75.368215"/>
     <use style="stroke:#000000;" x="174.584502" xlink:href="#m3ed5c39dca" y="75.316896"/>
     <use style="stroke:#000000;" x="181.277797" xlink:href="#m3ed5c39dca" y="75.20822"/>
     <use style="stroke:#000000;" x="187.971092" xlink:href="#m3ed5c39dca" y="75.171994"/>
     <use style="stroke:#000000;" x="194.664387" xlink:href="#m3ed5c39dca" y="75.168976"/>
     <use style="stroke:#000000;" x="201.357681" xlink:href="#m3ed5c39dca" y="75.087469"/>
     <use style="stroke:#000000;" x="208.050976" xlink:href="#m3ed5c39dca" y="75.039168"/>
     <use style="stroke:#000000;" x="214.744271" xlink:href="#m3ed5c39dca" y="74.972755"/>
     <use style="stroke:#000000;" x="221.270233" xlink:href="#m3ed5c39dca" y="75.165957"/>
    </g>
   </g>
   <g id="line2d_32">
    <path clip-path="url(#p51e3ed9487)" d="M 170.595224 119.782769 
L 170.888616 108.500079 
L 170.493119 97.217389 
L 170.5986 85.9347 
L 171.133312 74.65201 
L 170.982285 63.36932 
L 171.481661 52.08663 
L 171.619414 40.80394 
L 171.663622 29.52125 
" style="fill:none;stroke:#000000;stroke-linecap:square;"/>
    <g clip-path="url(#p51e3ed9487)">
     <use style="stroke:#000000;" x="170.595224" xlink:href="#m3ed5c39dca" y="119.782769"/>
     <use style="stroke:#000000;" x="170.888616" xlink:href="#m3ed5c39dca" y="108.500079"/>
     <use style="stroke:#000000;" x="170.493119" xlink:href="#m3ed5c39dca" y="97.217389"/>
     <use style="stroke:#000000;" x="170.5986" xlink:href="#m3ed5c39dca" y="85.9347"/>
     <use style="stroke:#000000;" x="171.133312" xlink:href="#m3ed5c39dca" y="74.65201"/>
     <use style="stroke:#000000;" x="170.982285" xlink:href="#m3ed5c39dca" y="63.36932"/>
     <use style="stroke:#000000;" x="171.481661" xlink:href="#m3ed5c39dca" y="52.08663"/>
     <use style="stroke:#000000;" x="171.619414" xlink:href="#m3ed5c39dca" y="40.80394"/>
     <use style="stroke:#000000;" x="171.663622" xlink:href="#m3ed5c39dca" y="29.52125"/>
    </g>
   </g>
   <g id="line2d_33">
    <g clip-path="url(#p51e3ed9487)">
     <use style="stroke:#000000;" x="170.473797" xlink:href="#m7723003ea0" y="119.782769"/>
     <use style="stroke:#000000;" x="170.755803" xlink:href="#m7723003ea0" y="108.500079"/>
     <use style="stroke:#000000;" x="170.313439" xlink:href="#m7723003ea0" y="97.217389"/>
     <use style="stroke:#000000;" x="170.448983" xlink:href="#m7723003ea0" y="85.9347"/>
     <use style="stroke:#000000;" x="171.027199" xlink:href="#m7723003ea0" y="74.65201"/>
     <use style="stroke:#000000;" x="170.849347" xlink:href="#m7723003ea0" y="63.36932"/>
     <use style="stroke:#000000;" x="171.359951" xlink:href="#m7723003ea0" y="52.08663"/>
     <use style="stroke:#000000;" x="171.469587" xlink:href="#m7723003ea0" y="40.80394"/>
     <use style="stroke:#000000;" x="171.531569" xlink:href="#m7723003ea0" y="29.52125"/>
    </g>
   </g>
   <g id="line2d_34">
    <g clip-path="url(#p51e3ed9487)">
     <use style="stroke:#000000;" x="170.71665" xlink:href="#m7723003ea0" y="119.782769"/>
     <use style="stroke:#000000;" x="171.021429" xlink:href="#m7723003ea0" y="108.500079"/>
     <use style="stroke:#000000;" x="170.6728" xlink:href="#m7723003ea0" y="97.217389"/>
     <use style="stroke:#000000;" x="170.748216" xlink:href="#m7723003ea0" y="85.9347"/>
     <use style="stroke:#000000;" x="171.239426" xlink:href="#m7723003ea0" y="74.65201"/>
     <use style="stroke:#000000;" x="171.115223" xlink:href="#m7723003ea0" y="63.36932"/>
     <use style="stroke:#000000;" x="171.603371" xlink:href="#m7723003ea0" y="52.08663"/>
     <use style="stroke:#000000;" x="171.769241" xlink:href="#m7723003ea0" y="40.80394"/>
     <use style="stroke:#000000;" x="171.795674" xlink:href="#m7723003ea0" y="29.52125"/>
    </g>
   </g>
   <g id="line2d_35">
    <path clip-path="url(#p51e3ed9487)" d="M 170.955046 63.36932 
" style="fill:none;stroke:#000000;stroke-linecap:square;stroke-width:1.5;"/>
    <g clip-path="url(#p51e3ed9487)">
     <use style="stroke:#000000;stroke-linejoin:miter;" x="170.955046" xlink:href="#m0d4dfadf6b" y="63.36932"/>
    </g>
   </g>
   <g id="line2d_36"/>
   <g id="line2d_37"/>
   <g id="patch_11">
    <path d="M 128.617681 119.782769 
L 128.617681 29.52125 
" style="fill:none;stroke:#000000;stroke-linecap:square;stroke-linejoin:miter;stroke-width:0.8;"/>
   </g>
   <g id="patch_12">
    <path d="M 221.270233 119.782769 
L 221.270233 29.52125 
" style="fill:none;stroke:#000000;stroke-linecap:square;stroke-linejoin:miter;stroke-width:0.8;"/>
   </g>
   <g id="patch_13">
    <path d="M 128.617681 119.782769 
L 221.270233 119.782769 
" style="fill:none;stroke:#000000;stroke-linecap:square;stroke-linejoin:miter;stroke-width:0.8;"/>
   </g>
   <g id="patch_14">
    <path d="M 128.617681 29.52125 
L 221.270233 29.52125 
" style="fill:none;stroke:#000000;stroke-linecap:square;stroke-linejoin:miter;stroke-width:0.8;"/>
   </g>
   <g id="text_27">
    <!-- CDW -->
    <g transform="translate(134.84248 76.583572)scale(0.07 -0.07)">
     <use xlink:href="#DejaVuSans-67"/>
     <use x="69.824219" xlink:href="#DejaVuSans-68"/>
     <use x="146.826172" xlink:href="#DejaVuSans-87"/>
    </g>
   </g>
   <g id="text_28">
    <!-- Mott -->
    <g transform="translate(187.885156 54.018192)scale(0.07 -0.07)">
     <use xlink:href="#DejaVuSans-77"/>
     <use x="86.279297" xlink:href="#DejaVuSans-111"/>
     <use x="147.460938" xlink:href="#DejaVuSans-116"/>
     <use x="186.669922" xlink:href="#DejaVuSans-116"/>
    </g>
   </g>
   <g id="text_29">
    <!-- Anderson -->
    <g transform="translate(179.181094 99.148952)scale(0.07 -0.07)">
     <defs>
      <path d="M 34.1875 63.1875 
L 20.796875 26.90625 
L 47.609375 26.90625 
z
M 28.609375 72.90625 
L 39.796875 72.90625 
L 67.578125 0 
L 57.328125 0 
L 50.6875 18.703125 
L 17.828125 18.703125 
L 11.1875 0 
L 0.78125 0 
z
" id="DejaVuSans-65"/>
      <path d="M 54.890625 33.015625 
L 54.890625 0 
L 45.90625 0 
L 45.90625 32.71875 
Q 45.90625 40.484375 42.875 44.328125 
Q 39.84375 48.1875 33.796875 48.1875 
Q 26.515625 48.1875 22.3125 43.546875 
Q 18.109375 38.921875 18.109375 30.90625 
L 18.109375 0 
L 9.078125 0 
L 9.078125 54.6875 
L 18.109375 54.6875 
L 18.109375 46.1875 
Q 21.34375 51.125 25.703125 53.5625 
Q 30.078125 56 35.796875 56 
Q 45.21875 56 50.046875 50.171875 
Q 54.890625 44.34375 54.890625 33.015625 
z
" id="DejaVuSans-110"/>
      <path d="M 45.40625 46.390625 
L 45.40625 75.984375 
L 54.390625 75.984375 
L 54.390625 0 
L 45.40625 0 
L 45.40625 8.203125 
Q 42.578125 3.328125 38.25 0.953125 
Q 33.9375 -1.421875 27.875 -1.421875 
Q 17.96875 -1.421875 11.734375 6.484375 
Q 5.515625 14.40625 5.515625 27.296875 
Q 5.515625 40.1875 11.734375 48.09375 
Q 17.96875 56 27.875 56 
Q 33.9375 56 38.25 53.625 
Q 42.578125 51.265625 45.40625 46.390625 
z
M 14.796875 27.296875 
Q 14.796875 17.390625 18.875 11.75 
Q 22.953125 6.109375 30.078125 6.109375 
Q 37.203125 6.109375 41.296875 11.75 
Q 45.40625 17.390625 45.40625 27.296875 
Q 45.40625 37.203125 41.296875 42.84375 
Q 37.203125 48.484375 30.078125 48.484375 
Q 22.953125 48.484375 18.875 42.84375 
Q 14.796875 37.203125 14.796875 27.296875 
z
" id="DejaVuSans-100"/>
      <path d="M 56.203125 29.59375 
L 56.203125 25.203125 
L 14.890625 25.203125 
Q 15.484375 15.921875 20.484375 11.0625 
Q 25.484375 6.203125 34.421875 6.203125 
Q 39.59375 6.203125 44.453125 7.46875 
Q 49.3125 8.734375 54.109375 11.28125 
L 54.109375 2.78125 
Q 49.265625 0.734375 44.1875 -0.34375 
Q 39.109375 -1.421875 33.890625 -1.421875 
Q 20.796875 -1.421875 13.15625 6.1875 
Q 5.515625 13.8125 5.515625 26.8125 
Q 5.515625 40.234375 12.765625 48.109375 
Q 20.015625 56 32.328125 56 
Q 43.359375 56 49.78125 48.890625 
Q 56.203125 41.796875 56.203125 29.59375 
z
M 47.21875 32.234375 
Q 47.125 39.59375 43.09375 43.984375 
Q 39.0625 48.390625 32.421875 48.390625 
Q 24.90625 48.390625 20.390625 44.140625 
Q 15.875 39.890625 15.1875 32.171875 
z
" id="DejaVuSans-101"/>
      <path d="M 41.109375 46.296875 
Q 39.59375 47.171875 37.8125 47.578125 
Q 36.03125 48 33.890625 48 
Q 26.265625 48 22.1875 43.046875 
Q 18.109375 38.09375 18.109375 28.8125 
L 18.109375 0 
L 9.078125 0 
L 9.078125 54.6875 
L 18.109375 54.6875 
L 18.109375 46.1875 
Q 20.953125 51.171875 25.484375 53.578125 
Q 30.03125 56 36.53125 56 
Q 37.453125 56 38.578125 55.875 
Q 39.703125 55.765625 41.0625 55.515625 
z
" id="DejaVuSans-114"/>
      <path d="M 44.28125 53.078125 
L 44.28125 44.578125 
Q 40.484375 46.53125 36.375 47.5 
Q 32.28125 48.484375 27.875 48.484375 
Q 21.1875 48.484375 17.84375 46.4375 
Q 14.5 44.390625 14.5 40.28125 
Q 14.5 37.15625 16.890625 35.375 
Q 19.28125 33.59375 26.515625 31.984375 
L 29.59375 31.296875 
Q 39.15625 29.25 43.1875 25.515625 
Q 47.21875 21.78125 47.21875 15.09375 
Q 47.21875 7.46875 41.1875 3.015625 
Q 35.15625 -1.421875 24.609375 -1.421875 
Q 20.21875 -1.421875 15.453125 -0.5625 
Q 10.6875 0.296875 5.421875 2 
L 5.421875 11.28125 
Q 10.40625 8.6875 15.234375 7.390625 
Q 20.0625 6.109375 24.8125 6.109375 
Q 31.15625 6.109375 34.5625 8.28125 
Q 37.984375 10.453125 37.984375 14.40625 
Q 37.984375 18.0625 35.515625 20.015625 
Q 33.0625 21.96875 24.703125 23.78125 
L 21.578125 24.515625 
Q 13.234375 26.265625 9.515625 29.90625 
Q 5.8125 33.546875 5.8125 39.890625 
Q 5.8125 47.609375 11.28125 51.796875 
Q 16.75 56 26.8125 56 
Q 31.78125 56 36.171875 55.265625 
Q 40.578125 54.546875 44.28125 53.078125 
z
" id="DejaVuSans-115"/>
     </defs>
     <use xlink:href="#DejaVuSans-65"/>
     <use x="68.408203" xlink:href="#DejaVuSans-110"/>
     <use x="131.787109" xlink:href="#DejaVuSans-100"/>
     <use x="195.263672" xlink:href="#DejaVuSans-101"/>
     <use x="256.787109" xlink:href="#DejaVuSans-114"/>
     <use x="297.900391" xlink:href="#DejaVuSans-115"/>
     <use x="350" xlink:href="#DejaVuSans-111"/>
     <use x="411.181641" xlink:href="#DejaVuSans-110"/>
    </g>
   </g>
   <g id="text_30">
    <!-- (b) -->
    <g transform="translate(131.397257 42.061078)scale(0.07 -0.07)">
     <defs>
      <path d="M 48.6875 27.296875 
Q 48.6875 37.203125 44.609375 42.84375 
Q 40.53125 48.484375 33.40625 48.484375 
Q 26.265625 48.484375 22.1875 42.84375 
Q 18.109375 37.203125 18.109375 27.296875 
Q 18.109375 17.390625 22.1875 11.75 
Q 26.265625 6.109375 33.40625 6.109375 
Q 40.53125 6.109375 44.609375 11.75 
Q 48.6875 17.390625 48.6875 27.296875 
z
M 18.109375 46.390625 
Q 20.953125 51.265625 25.265625 53.625 
Q 29.59375 56 35.59375 56 
Q 45.5625 56 51.78125 48.09375 
Q 58.015625 40.1875 58.015625 27.296875 
Q 58.015625 14.40625 51.78125 6.484375 
Q 45.5625 -1.421875 35.59375 -1.421875 
Q 29.59375 -1.421875 25.265625 0.953125 
Q 20.953125 3.328125 18.109375 8.203125 
L 18.109375 0 
L 9.078125 0 
L 9.078125 75.984375 
L 18.109375 75.984375 
z
" id="DejaVuSans-98"/>
     </defs>
     <use xlink:href="#DejaVuSans-40"/>
     <use x="39.013672" xlink:href="#DejaVuSans-98"/>
     <use x="102.490234" xlink:href="#DejaVuSans-41"/>
    </g>
   </g>
  </g>
  <g id="axes_3">
   <g id="patch_15">
    <path d="M 31.3325 214.557365 
L 123.985053 214.557365 
L 123.985053 124.295845 
L 31.3325 124.295845 
z
" style="fill:#ffffff;"/>
   </g>
   <g id="patch_16">
    <path clip-path="url(#p3225d7cf20)" d="M 78.700792 194.623533 
L 77.66746 195.958847 
L 77.661671 195.130745 
L 68.396416 195.959106 
L 68.390627 195.131004 
L 77.655882 194.302644 
L 77.650093 193.474542 
z
" style="stroke:#000000;stroke-linejoin:miter;stroke-width:0.001;"/>
   </g>
   <g id="patch_17">
    <path clip-path="url(#p3225d7cf20)" d="M 80.091331 165.002175 
L 81.123324 163.653681 
L 81.12994 164.481703 
L 89.237038 163.653343 
L 89.243653 164.481365 
L 81.136555 165.309726 
L 81.14317 166.137749 
z
" style="stroke:#000000;stroke-linejoin:miter;stroke-width:0.001;"/>
   </g>
   <g id="matplotlib.axis_5">
    <g id="xtick_10">
     <g id="line2d_38">
      <defs>
       <path d="M 0 0 
L 0 -3.5 
" id="m548971f10a" style="stroke:#000000;stroke-width:0.8;"/>
      </defs>
      <g>
       <use style="stroke:#000000;stroke-width:0.8;" x="31.3325" xlink:href="#m548971f10a" y="214.557365"/>
      </g>
     </g>
     <g id="line2d_39">
      <g>
       <use style="stroke:#000000;stroke-width:0.8;" x="31.3325" xlink:href="#mc3430fbc4e" y="124.295845"/>
      </g>
     </g>
     <g id="text_31">
      <!-- 0 -->
      <g transform="translate(28.7875 224.136115)scale(0.08 -0.08)">
       <use xlink:href="#DejaVuSans-48"/>
      </g>
     </g>
    </g>
    <g id="xtick_11">
     <g id="line2d_40">
      <g>
       <use style="stroke:#000000;stroke-width:0.8;" x="54.495638" xlink:href="#m548971f10a" y="214.557365"/>
      </g>
     </g>
     <g id="line2d_41">
      <g>
       <use style="stroke:#000000;stroke-width:0.8;" x="54.495638" xlink:href="#mc3430fbc4e" y="124.295845"/>
      </g>
     </g>
     <g id="text_32">
      <!-- 1 -->
      <g transform="translate(51.950638 224.136115)scale(0.08 -0.08)">
       <use xlink:href="#DejaVuSans-49"/>
      </g>
     </g>
    </g>
    <g id="xtick_12">
     <g id="line2d_42">
      <g>
       <use style="stroke:#000000;stroke-width:0.8;" x="77.658776" xlink:href="#m548971f10a" y="214.557365"/>
      </g>
     </g>
     <g id="line2d_43">
      <g>
       <use style="stroke:#000000;stroke-width:0.8;" x="77.658776" xlink:href="#mc3430fbc4e" y="124.295845"/>
      </g>
     </g>
     <g id="text_33">
      <!-- 2 -->
      <g transform="translate(75.113776 224.136115)scale(0.08 -0.08)">
       <use xlink:href="#DejaVuSans-50"/>
      </g>
     </g>
    </g>
    <g id="xtick_13">
     <g id="line2d_44">
      <g>
       <use style="stroke:#000000;stroke-width:0.8;" x="100.821915" xlink:href="#m548971f10a" y="214.557365"/>
      </g>
     </g>
     <g id="line2d_45">
      <g>
       <use style="stroke:#000000;stroke-width:0.8;" x="100.821915" xlink:href="#mc3430fbc4e" y="124.295845"/>
      </g>
     </g>
     <g id="text_34">
      <!-- 3 -->
      <g transform="translate(98.276915 224.136115)scale(0.08 -0.08)">
       <use xlink:href="#DejaVuSans-51"/>
      </g>
     </g>
    </g>
    <g id="text_35">
     <!-- T -->
     <g transform="translate(75.215651 236.878615)scale(0.08 -0.08)">
      <use xlink:href="#DejaVuSans-84"/>
     </g>
    </g>
   </g>
   <g id="matplotlib.axis_6">
    <g id="ytick_11">
     <g id="line2d_46">
      <g>
       <use style="stroke:#000000;stroke-width:0.8;" x="31.3325" xlink:href="#m8b0eb3aa04" y="211.283906"/>
      </g>
     </g>
     <g id="line2d_47">
      <g>
       <use style="stroke:#000000;stroke-width:0.8;" x="123.985053" xlink:href="#me35a47e195" y="211.283906"/>
      </g>
     </g>
     <g id="text_36">
      <!-- 0 -->
      <g transform="translate(22.7425 214.323281)scale(0.08 -0.08)">
       <use xlink:href="#DejaVuSans-48"/>
      </g>
     </g>
    </g>
    <g id="ytick_12">
     <g id="line2d_48">
      <g>
       <use style="stroke:#000000;stroke-width:0.8;" x="31.3325" xlink:href="#m8b0eb3aa04" y="169.865878"/>
      </g>
     </g>
     <g id="line2d_49">
      <g>
       <use style="stroke:#000000;stroke-width:0.8;" x="123.985053" xlink:href="#me35a47e195" y="169.865878"/>
      </g>
     </g>
     <g id="text_37">
      <!-- .5 -->
      <g transform="translate(20.2 172.905253)scale(0.08 -0.08)">
       <defs>
        <path d="M 10.6875 12.40625 
L 21 12.40625 
L 21 0 
L 10.6875 0 
z
" id="DejaVuSans-46"/>
        <path d="M 10.796875 72.90625 
L 49.515625 72.90625 
L 49.515625 64.59375 
L 19.828125 64.59375 
L 19.828125 46.734375 
Q 21.96875 47.46875 24.109375 47.828125 
Q 26.265625 48.1875 28.421875 48.1875 
Q 40.625 48.1875 47.75 41.5 
Q 54.890625 34.8125 54.890625 23.390625 
Q 54.890625 11.625 47.5625 5.09375 
Q 40.234375 -1.421875 26.90625 -1.421875 
Q 22.3125 -1.421875 17.546875 -0.640625 
Q 12.796875 0.140625 7.71875 1.703125 
L 7.71875 11.625 
Q 12.109375 9.234375 16.796875 8.0625 
Q 21.484375 6.890625 26.703125 6.890625 
Q 35.15625 6.890625 40.078125 11.328125 
Q 45.015625 15.765625 45.015625 23.390625 
Q 45.015625 31 40.078125 35.4375 
Q 35.15625 39.890625 26.703125 39.890625 
Q 22.75 39.890625 18.8125 39.015625 
Q 14.890625 38.140625 10.796875 36.28125 
z
" id="DejaVuSans-53"/>
       </defs>
       <use xlink:href="#DejaVuSans-46"/>
       <use x="31.787109" xlink:href="#DejaVuSans-53"/>
      </g>
     </g>
    </g>
    <g id="ytick_13">
     <g id="line2d_50">
      <g>
       <use style="stroke:#000000;stroke-width:0.8;" x="31.3325" xlink:href="#m8b0eb3aa04" y="128.44785"/>
      </g>
     </g>
     <g id="line2d_51">
      <g>
       <use style="stroke:#000000;stroke-width:0.8;" x="123.985053" xlink:href="#me35a47e195" y="128.44785"/>
      </g>
     </g>
     <g id="text_38">
      <!-- 1 -->
      <g transform="translate(22.7425 131.487225)scale(0.08 -0.08)">
       <use xlink:href="#DejaVuSans-49"/>
      </g>
     </g>
    </g>
    <g id="text_39">
     <!-- $m^2$ -->
     <g transform="translate(7.2 167.762855)scale(0.08 -0.08)">
      <defs>
       <path d="M 89.796875 33.015625 
L 83.40625 0 
L 74.421875 0 
L 80.71875 32.71875 
Q 81.109375 34.8125 81.296875 36.328125 
Q 81.5 37.84375 81.5 38.921875 
Q 81.5 43.3125 79.046875 45.75 
Q 76.609375 48.1875 72.21875 48.1875 
Q 65.671875 48.1875 60.546875 43.28125 
Q 55.421875 38.375 53.90625 30.515625 
L 47.90625 0 
L 38.921875 0 
L 45.3125 32.71875 
Q 45.703125 34.515625 45.890625 36.046875 
Q 46.09375 37.59375 46.09375 38.8125 
Q 46.09375 43.265625 43.65625 45.71875 
Q 41.21875 48.1875 36.921875 48.1875 
Q 30.28125 48.1875 25.140625 43.28125 
Q 20.015625 38.375 18.5 30.515625 
L 12.5 0 
L 3.515625 0 
L 14.203125 54.6875 
L 23.1875 54.6875 
L 21.484375 46.1875 
Q 25.140625 50.984375 30.046875 53.484375 
Q 34.96875 56 40.578125 56 
Q 46.53125 56 50.359375 52.875 
Q 54.203125 49.75 54.984375 44.1875 
Q 59.078125 49.953125 64.46875 52.96875 
Q 69.875 56 75.875 56 
Q 82.90625 56 86.734375 51.953125 
Q 90.578125 47.90625 90.578125 40.484375 
Q 90.578125 38.875 90.375 36.9375 
Q 90.1875 35.015625 89.796875 33.015625 
z
" id="DejaVuSans-Oblique-109"/>
      </defs>
      <use transform="translate(0 0.765625)" xlink:href="#DejaVuSans-Oblique-109"/>
      <use transform="translate(102.062005 39.046875)scale(0.7)" xlink:href="#DejaVuSans-50"/>
     </g>
    </g>
   </g>
   <g id="line2d_52">
    <path clip-path="url(#p3225d7cf20)" d="M 33.648814 128.446797 
L 48.175244 128.596934 
L 50.444999 128.927229 
L 52.260803 129.441361 
L 53.622656 130.019175 
L 54.984508 130.794918 
L 56.346361 131.798441 
L 57.708214 133.048221 
L 59.524018 135.067071 
L 61.339822 137.436796 
L 63.609577 140.80602 
L 66.333282 145.299999 
L 70.418841 152.564757 
L 75.866252 162.224557 
L 78.589958 166.612675 
L 80.859713 169.874921 
L 83.129467 172.772094 
L 85.399222 175.334864 
L 87.668977 177.593925 
L 89.938732 179.579972 
L 92.662437 181.646065 
L 95.386143 183.416255 
L 98.5638 185.178249 
L 102.195407 186.895042 
L 106.280966 188.556022 
L 110.366524 189.968118 
L 114.906034 191.279857 
L 119.445543 192.358568 
L 123.985053 193.243322 
L 123.985053 193.243322 
" style="fill:none;stroke:#55115c;stroke-linecap:square;stroke-width:1.5;"/>
   </g>
   <g id="line2d_53">
    <path clip-path="url(#p3225d7cf20)" d="M 33.648814 128.449561 
L 44.089686 128.502779 
L 48.175244 128.687691 
L 50.444999 129.028412 
L 52.260803 129.531939 
L 54.076607 130.31064 
L 55.438459 131.114055 
L 56.800312 132.135453 
L 58.162165 133.390996 
L 59.977969 135.433969 
L 61.793773 137.902822 
L 63.609577 140.802207 
L 65.42538 144.136773 
L 67.241184 147.911172 
L 69.510939 153.218549 
L 73.142546 162.452054 
L 76.320203 170.397472 
L 78.589958 175.49174 
L 80.405762 179.001374 
L 82.221566 182.006995 
L 84.037369 184.571035 
L 85.853173 186.755997 
L 87.668977 188.624387 
L 89.938732 190.609914 
L 92.208486 192.308258 
L 94.478241 193.767654 
L 97.201947 195.24433 
L 99.925653 196.468741 
L 103.103309 197.644177 
L 106.734917 198.723532 
L 110.820475 199.673423 
L 115.813936 200.573779 
L 123.985053 201.813629 
L 123.985053 201.813629 
" style="fill:none;stroke:#821760;stroke-linecap:square;stroke-width:1.5;"/>
   </g>
   <g id="line2d_54">
    <path clip-path="url(#p3225d7cf20)" d="M 33.648814 128.448799 
L 45.451539 128.536142 
L 48.629195 128.744138 
L 50.89895 129.138897 
L 52.714754 129.692528 
L 54.530558 130.522636 
L 55.89241 131.362793 
L 57.254263 132.416793 
L 58.616116 133.702118 
L 59.977969 135.23262 
L 61.793773 137.678564 
L 63.609577 140.617711 
L 65.42538 144.082824 
L 67.241184 148.106664 
L 69.056988 152.698421 
L 71.780694 160.320438 
L 76.774154 174.510656 
L 78.589958 179.075073 
L 80.405762 183.031255 
L 82.221566 186.384452 
L 84.037369 189.204182 
L 85.853173 191.56005 
L 87.668977 193.521663 
L 89.484781 195.158626 
L 91.754535 196.849249 
L 94.02429 198.219005 
L 96.294045 199.324075 
L 99.017751 200.379485 
L 102.195407 201.359341 
L 106.280966 202.377855 
L 110.820475 203.25374 
L 115.813936 203.971599 
L 121.715298 204.588319 
L 123.985053 204.783318 
L 123.985053 204.783318 
" style="fill:none;stroke:#ab275e;stroke-linecap:square;stroke-width:1.5;"/>
   </g>
   <g id="line2d_55">
    <path clip-path="url(#p3225d7cf20)" d="M 33.648814 128.446404 
L 48.175244 128.625736 
L 50.444999 128.977228 
L 52.260803 129.504169 
L 54.076607 130.309166 
L 55.89241 131.374082 
L 57.708214 132.669445 
L 59.524018 134.265259 
L 60.885871 135.727295 
L 62.247724 137.4697 
L 63.609577 139.540245 
L 64.971429 141.9867 
L 66.333282 144.856835 
L 67.695135 148.198366 
L 69.510939 153.382493 
L 71.780694 160.670501 
L 77.228105 178.620716 
L 79.043909 183.743303 
L 80.405762 187.047266 
L 81.767615 189.908684 
L 83.129467 192.369205 
L 84.49132 194.470477 
L 85.853173 196.254147 
L 87.668977 198.210309 
L 89.484781 199.774605 
L 91.300585 201.04277 
L 93.116388 202.074493 
L 95.386143 203.086106 
L 97.655898 203.853227 
L 100.379604 204.548252 
L 104.465162 205.351829 
L 109.458623 206.095261 
L 114.906034 206.668187 
L 121.715298 207.139354 
L 123.985053 207.257622 
L 123.985053 207.257622 
" style="fill:none;stroke:#cd4158;stroke-linecap:square;stroke-width:1.5;"/>
   </g>
   <g id="line2d_56">
    <path clip-path="url(#p3225d7cf20)" d="M 33.648814 128.426796 
L 36.82647 128.508436 
L 46.35944 128.515073 
L 48.629195 128.784851 
L 50.89895 129.273719 
L 52.714754 129.860255 
L 54.530558 130.651633 
L 56.346361 131.676577 
L 58.162165 132.977628 
L 59.524018 134.187261 
L 60.885871 135.643213 
L 62.247724 137.38678 
L 63.609577 139.459256 
L 64.971429 141.901933 
L 66.333282 144.756108 
L 67.695135 148.063033 
L 69.510939 153.185093 
L 71.780694 160.493957 
L 74.95835 171.749901 
L 78.136007 182.941027 
L 79.49786 187.049913 
L 80.859713 190.541809 
L 82.221566 193.47325 
L 83.583418 195.907353 
L 84.945271 197.907235 
L 86.307124 199.536012 
L 87.668977 200.856801 
L 89.484781 202.247852 
L 91.300585 203.347655 
L 93.570339 204.425379 
L 95.840094 205.232774 
L 98.5638 205.93321 
L 102.195407 206.589319 
L 107.188868 207.253142 
L 113.09023 207.789956 
L 120.353445 208.211688 
L 123.985053 208.373208 
L 123.985053 208.373208 
" style="fill:none;stroke:#e7624f;stroke-linecap:square;stroke-width:1.5;"/>
   </g>
   <g id="line2d_57">
    <path clip-path="url(#p3225d7cf20)" d="M 33.648814 128.444323 
L 39.096225 128.446938 
L 45.451539 128.487927 
L 48.175244 128.682651 
L 50.444999 129.052805 
L 52.260803 129.548234 
L 54.076607 130.269537 
L 55.89241 131.261682 
L 57.708214 132.570198 
L 59.524018 134.244609 
L 60.885871 135.771366 
L 62.247724 137.554392 
L 64.063527 140.367775 
L 65.879331 143.726449 
L 67.695135 147.68167 
L 69.510939 152.283725 
L 71.326743 157.579959 
L 73.142546 163.617165 
L 74.95835 170.442135 
L 79.49786 188.320372 
L 80.859713 192.379452 
L 82.221566 195.694689 
L 83.583418 198.357876 
L 84.945271 200.460804 
L 86.307124 202.095265 
L 87.668977 203.353051 
L 89.03083 204.325955 
L 90.846634 205.336558 
L 93.116388 206.310856 
L 95.386143 207.026958 
L 98.109849 207.626555 
L 101.741456 208.148656 
L 107.188868 208.673491 
L 113.544181 209.048755 
L 123.985053 209.430509 
L 123.985053 209.430509 
" style="fill:none;stroke:#f88646;stroke-linecap:square;stroke-width:1.5;"/>
   </g>
   <g id="line2d_58">
    <path clip-path="url(#p3225d7cf20)" d="M 33.648814 128.446021 
L 41.36598 128.437926 
L 46.35944 128.565564 
L 49.083146 128.842194 
L 51.352901 129.306993 
L 53.168705 129.892045 
L 54.984508 130.712745 
L 56.800312 131.811723 
L 58.616116 133.235608 
L 60.43192 135.037579 
L 61.793773 136.669531 
L 63.155626 138.567102 
L 64.971429 141.5496 
L 66.787233 145.098434 
L 68.603037 149.267314 
L 70.418841 154.108789 
L 72.234645 159.674501 
L 74.050448 166.016066 
L 75.866252 173.169985 
L 79.043909 186.091644 
L 80.405762 190.862927 
L 81.767615 194.992064 
L 83.129467 198.473006 
L 84.49132 201.299703 
L 85.853173 203.466106 
L 86.761075 204.541584 
L 87.668977 205.350138 
L 89.03083 206.19535 
L 90.846634 206.957269 
L 93.116388 207.682699 
L 95.840094 208.306148 
L 99.017751 208.784465 
L 103.55726 209.215844 
L 109.912573 209.597199 
L 118.991592 209.884326 
L 123.985053 210.001352 
L 123.985053 210.001352 
" style="fill:none;stroke:#ffad40;stroke-linecap:square;stroke-width:1.5;"/>
   </g>
   <g id="line2d_59">
    <path clip-path="url(#p3225d7cf20)" d="M 33.648814 128.447192 
L 40.458078 128.424493 
L 45.905489 128.509469 
L 48.629195 128.745451 
L 50.89895 129.167254 
L 52.714754 129.714902 
L 54.530558 130.497803 
L 56.346361 131.560638 
L 58.162165 132.944502 
L 59.977969 134.67859 
L 61.793773 136.789633 
L 63.609577 139.30436 
L 65.42538 142.249503 
L 67.241184 145.651791 
L 69.056988 149.564705 
L 70.418841 152.966474 
L 71.780694 156.905119 
L 73.142546 161.446566 
L 74.95835 168.410743 
L 77.228105 178.288703 
L 79.951811 190.075438 
L 81.313664 195.203866 
L 82.675516 199.444255 
L 83.583418 201.671373 
L 84.49132 203.452958 
L 85.399222 204.847778 
L 86.307124 205.914602 
L 87.215026 206.711801 
L 88.576879 207.525653 
L 89.938732 208.049372 
L 92.208486 208.681023 
L 94.932192 209.206652 
L 98.109849 209.584681 
L 103.103309 209.911148 
L 111.274426 210.224709 
L 123.985053 210.454568 
L 123.985053 210.454568 
" style="fill:none;stroke:#ffd547;stroke-linecap:square;stroke-width:1.5;"/>
   </g>
   <g id="line2d_60">
    <path clip-path="url(#p3225d7cf20)" d="M 84.254207 202.639526 
" style="fill:none;stroke:#000000;stroke-linecap:square;stroke-width:1.5;"/>
    <g clip-path="url(#p3225d7cf20)">
     <use style="stroke:#000000;stroke-linejoin:miter;" x="84.254207" xlink:href="#m0d4dfadf6b" y="202.639526"/>
    </g>
   </g>
   <g id="patch_18">
    <path d="M 31.3325 214.557365 
L 31.3325 124.295845 
" style="fill:none;stroke:#000000;stroke-linecap:square;stroke-linejoin:miter;stroke-width:0.8;"/>
   </g>
   <g id="patch_19">
    <path d="M 123.985053 214.557365 
L 123.985053 124.295845 
" style="fill:none;stroke:#000000;stroke-linecap:square;stroke-linejoin:miter;stroke-width:0.8;"/>
   </g>
   <g id="patch_20">
    <path d="M 31.3325 214.557365 
L 123.985053 214.557365 
" style="fill:none;stroke:#000000;stroke-linecap:square;stroke-linejoin:miter;stroke-width:0.8;"/>
   </g>
   <g id="patch_21">
    <path d="M 31.3325 124.295845 
L 123.985053 124.295845 
" style="fill:none;stroke:#000000;stroke-linecap:square;stroke-linejoin:miter;stroke-width:0.8;"/>
   </g>
   <g id="text_40">
    <!-- N = 250 -->
    <g transform="translate(38.322083 197.476618)scale(0.07 -0.07)">
     <defs>
      <path d="M 9.8125 72.90625 
L 23.09375 72.90625 
L 55.421875 11.921875 
L 55.421875 72.90625 
L 64.984375 72.90625 
L 64.984375 0 
L 51.703125 0 
L 19.390625 60.984375 
L 19.390625 0 
L 9.8125 0 
z
" id="DejaVuSans-78"/>
      <path id="DejaVuSans-32"/>
      <path d="M 10.59375 45.40625 
L 73.1875 45.40625 
L 73.1875 37.203125 
L 10.59375 37.203125 
z
M 10.59375 25.484375 
L 73.1875 25.484375 
L 73.1875 17.1875 
L 10.59375 17.1875 
z
" id="DejaVuSans-61"/>
     </defs>
     <use xlink:href="#DejaVuSans-78"/>
     <use x="74.804688" xlink:href="#DejaVuSans-32"/>
     <use x="106.591797" xlink:href="#DejaVuSans-61"/>
     <use x="190.380859" xlink:href="#DejaVuSans-32"/>
     <use x="222.167969" xlink:href="#DejaVuSans-50"/>
     <use x="285.791016" xlink:href="#DejaVuSans-53"/>
     <use x="349.414062" xlink:href="#DejaVuSans-48"/>
    </g>
   </g>
   <g id="text_41">
    <!-- N = 10 -->
    <g transform="translate(90.398502 165.998917)scale(0.07 -0.07)">
     <use xlink:href="#DejaVuSans-78"/>
     <use x="74.804688" xlink:href="#DejaVuSans-32"/>
     <use x="106.591797" xlink:href="#DejaVuSans-61"/>
     <use x="190.380859" xlink:href="#DejaVuSans-32"/>
     <use x="222.167969" xlink:href="#DejaVuSans-49"/>
     <use x="285.791016" xlink:href="#DejaVuSans-48"/>
    </g>
   </g>
   <g id="text_42">
    <!-- (c) -->
    <g transform="translate(34.112077 136.835673)scale(0.07 -0.07)">
     <defs>
      <path d="M 48.78125 52.59375 
L 48.78125 44.1875 
Q 44.96875 46.296875 41.140625 47.34375 
Q 37.3125 48.390625 33.40625 48.390625 
Q 24.65625 48.390625 19.8125 42.84375 
Q 14.984375 37.3125 14.984375 27.296875 
Q 14.984375 17.28125 19.8125 11.734375 
Q 24.65625 6.203125 33.40625 6.203125 
Q 37.3125 6.203125 41.140625 7.25 
Q 44.96875 8.296875 48.78125 10.40625 
L 48.78125 2.09375 
Q 45.015625 0.34375 40.984375 -0.53125 
Q 36.96875 -1.421875 32.421875 -1.421875 
Q 20.0625 -1.421875 12.78125 6.34375 
Q 5.515625 14.109375 5.515625 27.296875 
Q 5.515625 40.671875 12.859375 48.328125 
Q 20.21875 56 33.015625 56 
Q 37.15625 56 41.109375 55.140625 
Q 45.0625 54.296875 48.78125 52.59375 
z
" id="DejaVuSans-99"/>
     </defs>
     <use xlink:href="#DejaVuSans-40"/>
     <use x="39.013672" xlink:href="#DejaVuSans-99"/>
     <use x="93.994141" xlink:href="#DejaVuSans-41"/>
    </g>
   </g>
  </g>
  <g id="axes_4">
   <g id="patch_22">
    <path d="M 128.617681 214.557365 
L 221.270233 214.557365 
L 221.270233 124.295845 
L 128.617681 124.295845 
z
" style="fill:#ffffff;"/>
   </g>
   <g id="matplotlib.axis_7">
    <g id="xtick_14">
     <g id="line2d_61">
      <g>
       <use style="stroke:#000000;stroke-width:0.8;" x="132.82916" xlink:href="#m548971f10a" y="214.557365"/>
      </g>
     </g>
     <g id="line2d_62">
      <g>
       <use style="stroke:#000000;stroke-width:0.8;" x="132.82916" xlink:href="#mc3430fbc4e" y="124.295845"/>
      </g>
     </g>
     <g id="text_43">
      <!-- 1.5 -->
      <g transform="translate(126.46791 224.136115)scale(0.08 -0.08)">
       <use xlink:href="#DejaVuSans-49"/>
       <use x="63.623047" xlink:href="#DejaVuSans-46"/>
       <use x="95.410156" xlink:href="#DejaVuSans-53"/>
      </g>
     </g>
    </g>
    <g id="xtick_15">
     <g id="line2d_63">
      <g>
       <use style="stroke:#000000;stroke-width:0.8;" x="174.943957" xlink:href="#m548971f10a" y="214.557365"/>
      </g>
     </g>
     <g id="line2d_64">
      <g>
       <use style="stroke:#000000;stroke-width:0.8;" x="174.943957" xlink:href="#mc3430fbc4e" y="124.295845"/>
      </g>
     </g>
     <g id="text_44">
      <!-- 2 -->
      <g transform="translate(172.398957 224.136115)scale(0.08 -0.08)">
       <use xlink:href="#DejaVuSans-50"/>
      </g>
     </g>
    </g>
    <g id="xtick_16">
     <g id="line2d_65">
      <g>
       <use style="stroke:#000000;stroke-width:0.8;" x="217.058754" xlink:href="#m548971f10a" y="214.557365"/>
      </g>
     </g>
     <g id="line2d_66">
      <g>
       <use style="stroke:#000000;stroke-width:0.8;" x="217.058754" xlink:href="#mc3430fbc4e" y="124.295845"/>
      </g>
     </g>
     <g id="text_45">
      <!-- 2.5 -->
      <g transform="translate(210.697504 224.136115)scale(0.08 -0.08)">
       <use xlink:href="#DejaVuSans-50"/>
       <use x="63.623047" xlink:href="#DejaVuSans-46"/>
       <use x="95.410156" xlink:href="#DejaVuSans-53"/>
      </g>
     </g>
    </g>
    <g id="text_46">
     <!-- T -->
     <g transform="translate(172.500832 236.878615)scale(0.08 -0.08)">
      <use xlink:href="#DejaVuSans-84"/>
     </g>
    </g>
   </g>
   <g id="matplotlib.axis_8">
    <g id="ytick_14">
     <g id="line2d_67">
      <g>
       <use style="stroke:#000000;stroke-width:0.8;" x="221.270233" xlink:href="#me35a47e195" y="210.749727"/>
      </g>
     </g>
     <g id="text_47">
      <!-- 1.0 -->
      <g transform="translate(224.770233 213.789102)scale(0.08 -0.08)">
       <use xlink:href="#DejaVuSans-49"/>
       <use x="63.623047" xlink:href="#DejaVuSans-46"/>
       <use x="95.410156" xlink:href="#DejaVuSans-48"/>
      </g>
     </g>
    </g>
    <g id="ytick_15">
     <g id="line2d_68">
      <g>
       <use style="stroke:#000000;stroke-width:0.8;" x="221.270233" xlink:href="#me35a47e195" y="184.166755"/>
      </g>
     </g>
     <g id="text_48">
      <!-- 1.5 -->
      <g transform="translate(224.770233 187.20613)scale(0.08 -0.08)">
       <use xlink:href="#DejaVuSans-49"/>
       <use x="63.623047" xlink:href="#DejaVuSans-46"/>
       <use x="95.410156" xlink:href="#DejaVuSans-53"/>
      </g>
     </g>
    </g>
    <g id="ytick_16">
     <g id="line2d_69">
      <g>
       <use style="stroke:#000000;stroke-width:0.8;" x="221.270233" xlink:href="#me35a47e195" y="157.583782"/>
      </g>
     </g>
     <g id="text_49">
      <!-- 2.0 -->
      <g transform="translate(224.770233 160.623157)scale(0.08 -0.08)">
       <use xlink:href="#DejaVuSans-50"/>
       <use x="63.623047" xlink:href="#DejaVuSans-46"/>
       <use x="95.410156" xlink:href="#DejaVuSans-48"/>
      </g>
     </g>
    </g>
    <g id="ytick_17">
     <g id="line2d_70">
      <g>
       <use style="stroke:#000000;stroke-width:0.8;" x="221.270233" xlink:href="#me35a47e195" y="131.000809"/>
      </g>
     </g>
     <g id="text_50">
      <!-- 2.5 -->
      <g transform="translate(224.770233 134.040184)scale(0.08 -0.08)">
       <use xlink:href="#DejaVuSans-50"/>
       <use x="63.623047" xlink:href="#DejaVuSans-46"/>
       <use x="95.410156" xlink:href="#DejaVuSans-53"/>
      </g>
     </g>
    </g>
    <g id="text_51">
     <!-- B -->
     <g transform="translate(239.748358 175.505355)scale(0.08 -0.08)">
      <defs>
       <path d="M 19.671875 34.8125 
L 19.671875 8.109375 
L 35.5 8.109375 
Q 43.453125 8.109375 47.28125 11.40625 
Q 51.125 14.703125 51.125 21.484375 
Q 51.125 28.328125 47.28125 31.5625 
Q 43.453125 34.8125 35.5 34.8125 
z
M 19.671875 64.796875 
L 19.671875 42.828125 
L 34.28125 42.828125 
Q 41.5 42.828125 45.03125 45.53125 
Q 48.578125 48.25 48.578125 53.8125 
Q 48.578125 59.328125 45.03125 62.0625 
Q 41.5 64.796875 34.28125 64.796875 
z
M 9.8125 72.90625 
L 35.015625 72.90625 
Q 46.296875 72.90625 52.390625 68.21875 
Q 58.5 63.53125 58.5 54.890625 
Q 58.5 48.1875 55.375 44.234375 
Q 52.25 40.28125 46.1875 39.3125 
Q 53.46875 37.75 57.5 32.78125 
Q 61.53125 27.828125 61.53125 20.40625 
Q 61.53125 10.640625 54.890625 5.3125 
Q 48.25 0 35.984375 0 
L 9.8125 0 
z
" id="DejaVuSans-66"/>
      </defs>
      <use xlink:href="#DejaVuSans-66"/>
     </g>
    </g>
   </g>
   <g id="line2d_71">
    <path clip-path="url(#p7812c8806d)" d="M 132.82916 203.918195 
L 137.485067 202.652586 
L 142.987503 200.910594 
L 149.336468 198.655732 
L 158.648282 195.08203 
L 169.653153 190.628404 
L 182.774346 185.059581 
L 192.086161 181.206176 
L 200.128182 177.903348 
L 207.323675 174.890569 
L 212.402847 173.049445 
L 217.058754 171.46561 
L 217.058754 171.46561 
" style="fill:none;stroke:#55115c;stroke-linecap:square;stroke-width:1.5;"/>
   </g>
   <g id="line2d_72">
    <path clip-path="url(#p7812c8806d)" d="M 132.82916 205.897515 
L 136.638539 204.869597 
L 140.871182 203.484194 
L 145.103825 201.864165 
L 149.759732 199.837621 
L 154.838903 197.368384 
L 160.341339 194.432297 
L 166.690303 190.769234 
L 173.885796 186.35175 
L 184.467404 179.563339 
L 199.281654 170.073311 
L 206.477147 165.721376 
L 212.826111 162.140185 
L 217.058754 159.926321 
L 217.058754 159.926321 
" style="fill:none;stroke:#821760;stroke-linecap:square;stroke-width:1.5;"/>
   </g>
   <g id="line2d_73">
    <path clip-path="url(#p7812c8806d)" d="M 132.82916 207.5046 
L 136.215275 206.868051 
L 139.601389 205.993936 
L 142.987503 204.895061 
L 146.796882 203.406114 
L 150.60626 201.667148 
L 154.415639 199.696397 
L 158.648282 197.257004 
L 163.304189 194.299017 
L 168.383361 190.781932 
L 173.885796 186.678821 
L 180.234761 181.643891 
L 202.667768 163.531788 
L 207.746939 159.875474 
L 211.979582 157.089916 
L 215.788961 154.82976 
L 217.058754 154.134869 
L 217.058754 154.134869 
" style="fill:none;stroke:#ab275e;stroke-linecap:square;stroke-width:1.5;"/>
   </g>
   <g id="line2d_74">
    <path clip-path="url(#p7812c8806d)" d="M 132.82916 208.967492 
L 139.178125 208.074743 
L 143.410767 207.25275 
L 146.796882 206.383391 
L 150.182996 205.268993 
L 153.145846 204.051663 
L 156.108696 202.575121 
L 159.071546 200.839841 
L 162.034396 198.862741 
L 165.420511 196.32897 
L 168.806625 193.527085 
L 172.616003 190.08618 
L 176.848646 185.947775 
L 181.927818 180.654127 
L 198.011861 163.625572 
L 203.091032 158.74418 
L 208.593468 153.763402 
L 214.942432 148.321661 
L 217.058754 146.56238 
L 217.058754 146.56238 
" style="fill:none;stroke:#cd4158;stroke-linecap:square;stroke-width:1.5;"/>
   </g>
   <g id="line2d_75">
    <path clip-path="url(#p7812c8806d)" d="M 132.82916 209.585699 
L 141.71771 208.629526 
L 145.950353 207.931684 
L 149.336468 207.157098 
L 152.299318 206.273158 
L 155.262168 205.157435 
L 158.225018 203.784518 
L 161.187868 202.142313 
L 164.150718 200.219407 
L 167.113568 198.004387 
L 170.076418 195.48584 
L 173.039268 192.652353 
L 176.002118 189.493154 
L 179.388232 185.514548 
L 183.620875 180.142586 
L 192.086161 168.87953 
L 197.165332 162.361767 
L 200.974711 157.823111 
L 204.784089 153.63598 
L 208.170204 150.236614 
L 211.556318 147.165616 
L 214.519168 144.766584 
L 217.058754 142.936982 
L 217.058754 142.936982 
" style="fill:none;stroke:#e7624f;stroke-linecap:square;stroke-width:1.5;"/>
   </g>
   <g id="line2d_76">
    <path clip-path="url(#p7812c8806d)" d="M 132.82916 210.024744 
L 142.564239 209.486706 
L 147.64341 208.973692 
L 151.876053 208.321904 
L 155.685432 207.504175 
L 158.648282 206.656642 
L 161.187868 205.724931 
L 163.727453 204.55644 
L 166.267039 203.106346 
L 168.383361 201.650481 
L 170.499682 199.941989 
L 172.616003 197.954932 
L 174.732325 195.663368 
L 176.848646 193.051453 
L 179.388232 189.550485 
L 182.351082 185.085257 
L 187.006989 177.600711 
L 195.472275 163.944154 
L 199.281654 158.252814 
L 203.091032 152.955735 
L 206.900411 148.036736 
L 210.709789 143.479534 
L 214.519168 139.267849 
L 217.058754 136.643973 
L 217.058754 136.643973 
" style="fill:none;stroke:#f88646;stroke-linecap:square;stroke-width:1.5;"/>
   </g>
   <g id="line2d_77">
    <path clip-path="url(#p7812c8806d)" d="M 132.82916 210.241706 
L 142.987503 209.873842 
L 149.759732 209.416784 
L 155.685432 208.79098 
L 159.071546 208.243694 
L 162.034396 207.526505 
L 164.573982 206.660318 
L 166.690303 205.716213 
L 168.806625 204.533685 
L 170.922946 203.07866 
L 173.039268 201.317064 
L 175.155589 199.214833 
L 177.271911 196.750234 
L 179.388232 193.938184 
L 181.927818 190.135631 
L 184.467404 185.901469 
L 187.430254 180.474126 
L 191.662896 172.142148 
L 197.588597 160.471315 
L 200.974711 154.292856 
L 203.937561 149.292061 
L 206.900411 144.727824 
L 209.439997 141.205215 
L 211.979582 138.079175 
L 214.095904 135.802327 
L 216.212225 133.845434 
L 217.058754 133.156801 
L 217.058754 133.156801 
" style="fill:none;stroke:#ffad40;stroke-linecap:square;stroke-width:1.5;"/>
   </g>
   <g id="line2d_78">
    <path clip-path="url(#p7812c8806d)" d="M 132.82916 210.454568 
L 152.722582 209.778058 
L 158.225018 209.279776 
L 164.573982 208.477875 
L 167.960096 207.887926 
L 170.076418 207.280222 
L 171.769475 206.570136 
L 173.462532 205.59877 
L 175.155589 204.308699 
L 176.848646 202.662045 
L 178.541703 200.674925 
L 180.234761 198.372701 
L 182.351082 195.090448 
L 184.467404 191.405015 
L 187.006989 186.520047 
L 189.969839 180.291492 
L 193.355954 172.641448 
L 198.858389 159.540489 
L 202.667768 150.738103 
L 205.207354 145.436567 
L 207.323675 141.56065 
L 209.439997 138.209033 
L 211.556318 135.251982 
L 214.519168 131.506581 
L 217.058754 128.398642 
L 217.058754 128.398642 
" style="fill:none;stroke:#ffd547;stroke-linecap:square;stroke-width:1.5;"/>
   </g>
   <g id="line2d_79">
    <path clip-path="url(#p7812c8806d)" d="M 198.92734 158.292074 
" style="fill:none;stroke:#000000;stroke-linecap:square;stroke-width:1.5;"/>
    <g clip-path="url(#p7812c8806d)">
     <use style="stroke:#000000;stroke-linejoin:miter;" x="198.92734" xlink:href="#m0d4dfadf6b" y="158.292074"/>
    </g>
   </g>
   <g id="patch_23">
    <path d="M 128.617681 214.557365 
L 128.617681 124.295845 
" style="fill:none;stroke:#000000;stroke-linecap:square;stroke-linejoin:miter;stroke-width:0.8;"/>
   </g>
   <g id="patch_24">
    <path d="M 221.270233 214.557365 
L 221.270233 124.295845 
" style="fill:none;stroke:#000000;stroke-linecap:square;stroke-linejoin:miter;stroke-width:0.8;"/>
   </g>
   <g id="patch_25">
    <path d="M 128.617681 214.557365 
L 221.270233 214.557365 
" style="fill:none;stroke:#000000;stroke-linecap:square;stroke-linejoin:miter;stroke-width:0.8;"/>
   </g>
   <g id="patch_26">
    <path d="M 128.617681 124.295845 
L 221.270233 124.295845 
" style="fill:none;stroke:#000000;stroke-linecap:square;stroke-linejoin:miter;stroke-width:0.8;"/>
   </g>
   <g id="text_52">
    <!-- (d) -->
    <g transform="translate(131.397257 136.835673)scale(0.07 -0.07)">
     <use xlink:href="#DejaVuSans-40"/>
     <use x="39.013672" xlink:href="#DejaVuSans-100"/>
     <use x="102.490234" xlink:href="#DejaVuSans-41"/>
    </g>
   </g>
  </g>
  <g id="line2d_80">
   <path d="M 128.617681 124.295845 
L 155.486921 119.782769 
" style="fill:none;stroke:#000000;stroke-linecap:square;stroke-width:0.8;"/>
  </g>
  <g id="line2d_81">
   <path d="M 155.486921 119.782769 
L 155.486921 116.841798 
" style="fill:none;stroke:#000000;stroke-linecap:square;stroke-width:0.8;"/>
  </g>
  <g id="line2d_82">
   <path d="M 221.270233 124.295845 
L 175.870483 119.782769 
" style="fill:none;stroke:#000000;stroke-linecap:square;stroke-width:0.8;"/>
  </g>
  <g id="line2d_83">
   <path d="M 175.870483 119.782769 
L 175.870483 116.841798 
" style="fill:none;stroke:#000000;stroke-linecap:square;stroke-width:0.8;"/>
  </g>
 </g>
 <defs>
  <clipPath id="p7341cdf9cb">
   <rect height="90.261519" width="92.652553" x="31.3325" y="29.52125"/>
  </clipPath>
  <clipPath id="p51e3ed9487">
   <rect height="90.261519" width="92.652553" x="128.617681" y="29.52125"/>
  </clipPath>
  <clipPath id="p3225d7cf20">
   <rect height="90.261519" width="92.652553" x="31.3325" y="124.295845"/>
  </clipPath>
  <clipPath id="p7812c8806d">
   <rect height="90.261519" width="92.652553" x="128.617681" y="124.295845"/>
  </clipPath>
 </defs>
</svg>
